<svg xmlns="http://www.w3.org/2000/svg" xmlns:xlink="http://www.w3.org/1999/xlink" width="347" zoomAndPan="magnify" viewBox="0 0 260.25 73.499998" height="98" preserveAspectRatio="xMidYMid meet" version="1.0"><defs><g/><clipPath id="fe7833547a"><path d="M 3.019531 13.484375 L 29.835938 13.484375 L 29.835938 33 L 3.019531 33 Z M 3.019531 13.484375 " clip-rule="nonzero"/></clipPath></defs><g clip-path="url(#fe7833547a)"><path fill="#ffffff" d="M 22.058594 19.980469 L 16.832031 13.746094 C 16.617188 13.492188 16.230469 13.492188 16.015625 13.746094 L 10.789062 19.976562 C 10.613281 20.183594 10.3125 20.226562 10.089844 20.078125 L 3.925781 15.996094 C 3.542969 15.746094 3.042969 16.058594 3.101562 16.511719 L 5.066406 31.628906 C 5.097656 31.894531 5.324219 32.09375 5.59375 32.09375 L 27.253906 32.09375 C 27.523438 32.09375 27.75 31.894531 27.785156 31.628906 L 29.746094 16.511719 C 29.804688 16.058594 29.304688 15.746094 28.925781 16 L 22.761719 20.082031 C 22.535156 20.230469 22.234375 20.1875 22.0625 19.980469 Z M 22.058594 19.980469 " fill-opacity="1" fill-rule="nonzero"/></g><path fill="#ffffff" d="M 5.871094 33.972656 L 26.976562 33.972656 C 27.171875 33.972656 27.335938 34.042969 27.472656 34.179688 C 27.609375 34.316406 27.679688 34.484375 27.679688 34.675781 L 27.679688 37.039062 C 27.679688 37.234375 27.609375 37.398438 27.472656 37.535156 C 27.335938 37.671875 27.171875 37.742188 26.976562 37.742188 L 5.871094 37.742188 C 5.679688 37.742188 5.511719 37.671875 5.375 37.535156 C 5.238281 37.398438 5.171875 37.234375 5.171875 37.039062 L 5.171875 34.675781 C 5.171875 34.484375 5.238281 34.316406 5.375 34.179688 C 5.511719 34.042969 5.679688 33.972656 5.871094 33.972656 Z M 5.871094 33.972656 " fill-opacity="1" fill-rule="nonzero"/><g fill="#ffffff" fill-opacity="1"><g transform="translate(39.602264, 36.844129)"><g><path d="M 1.140625 -17.796875 L 1.140625 -20.40625 L 15.390625 -20.40625 L 15.390625 -17.796875 L 9.953125 -17.796875 L 9.953125 0 L 6.609375 0 L 6.609375 -17.796875 Z M 1.140625 -17.796875 "/></g></g></g><g fill="#ffffff" fill-opacity="1"><g transform="translate(56.162265, 36.844129)"><g><path d="M 12.875 -4.125 C 13.84375 -5.113281 14.328125 -6.4375 14.328125 -8.09375 C 14.328125 -9.757812 13.84375 -11.082031 12.875 -12.0625 C 11.90625 -13.039062 10.753906 -13.53125 9.421875 -13.53125 C 8.085938 -13.53125 6.9375 -13.050781 5.96875 -12.09375 C 5 -11.132812 4.515625 -9.820312 4.515625 -8.15625 C 4.515625 -6.5 5 -5.164062 5.96875 -4.15625 C 6.9375 -3.144531 8.085938 -2.640625 9.421875 -2.640625 C 10.753906 -2.640625 11.90625 -3.132812 12.875 -4.125 Z M 8.71875 0.265625 C 6.5625 0.265625 4.75 -0.519531 3.28125 -2.09375 C 1.820312 -3.675781 1.09375 -5.691406 1.09375 -8.140625 C 1.09375 -10.597656 1.816406 -12.59375 3.265625 -14.125 C 4.722656 -15.664062 6.539062 -16.4375 8.71875 -16.4375 C 9.988281 -16.4375 11.109375 -16.144531 12.078125 -15.5625 C 13.046875 -14.988281 13.796875 -14.234375 14.328125 -13.296875 L 14.328125 -16.171875 L 17.703125 -16.171875 L 17.703125 0 L 14.328125 0 L 14.328125 -3.03125 C 13.773438 -2.03125 13.019531 -1.226562 12.0625 -0.625 C 11.101562 -0.03125 9.988281 0.265625 8.71875 0.265625 Z M 8.71875 0.265625 "/></g></g></g><g fill="#ffffff" fill-opacity="1"><g transform="translate(76.069503, 36.844129)"><g><path d="M 6.015625 -20.453125 C 6.015625 -19.847656 5.804688 -19.335938 5.390625 -18.921875 C 4.984375 -18.515625 4.484375 -18.3125 3.890625 -18.3125 C 3.296875 -18.3125 2.789062 -18.515625 2.375 -18.921875 C 1.96875 -19.335938 1.765625 -19.847656 1.765625 -20.453125 C 1.765625 -21.066406 1.96875 -21.578125 2.375 -21.984375 C 2.789062 -22.398438 3.296875 -22.609375 3.890625 -22.609375 C 4.484375 -22.609375 4.984375 -22.398438 5.390625 -21.984375 C 5.804688 -21.578125 6.015625 -21.066406 6.015625 -20.453125 Z M 2.203125 0 L 2.203125 -16.171875 L 5.546875 -16.171875 L 5.546875 0 Z M 2.203125 0 "/></g></g></g><g fill="#ffffff" fill-opacity="1"><g transform="translate(83.820991, 36.844129)"><g><path d="M 8.984375 -16.171875 L 8.984375 -13.453125 L 5.984375 -13.453125 L 5.984375 0 L 2.609375 0 L 2.609375 -13.453125 L 0.703125 -13.453125 L 0.703125 -16.171875 L 2.609375 -16.171875 L 2.609375 -17.328125 C 2.609375 -19.179688 3.101562 -20.535156 4.09375 -21.390625 C 5.082031 -22.242188 6.632812 -22.671875 8.75 -22.671875 L 8.75 -19.875 C 7.726562 -19.875 7.007812 -19.679688 6.59375 -19.296875 C 6.1875 -18.921875 5.984375 -18.265625 5.984375 -17.328125 L 5.984375 -16.171875 Z M 8.984375 -16.171875 "/></g></g></g><g fill="#ffffff" fill-opacity="1"><g transform="translate(93.569074, 36.844129)"><g><path d="M 12.875 -4.125 C 13.84375 -5.113281 14.328125 -6.4375 14.328125 -8.09375 C 14.328125 -9.757812 13.84375 -11.082031 12.875 -12.0625 C 11.90625 -13.039062 10.753906 -13.53125 9.421875 -13.53125 C 8.085938 -13.53125 6.9375 -13.050781 5.96875 -12.09375 C 5 -11.132812 4.515625 -9.820312 4.515625 -8.15625 C 4.515625 -6.5 5 -5.164062 5.96875 -4.15625 C 6.9375 -3.144531 8.085938 -2.640625 9.421875 -2.640625 C 10.753906 -2.640625 11.90625 -3.132812 12.875 -4.125 Z M 8.71875 0.265625 C 6.5625 0.265625 4.75 -0.519531 3.28125 -2.09375 C 1.820312 -3.675781 1.09375 -5.691406 1.09375 -8.140625 C 1.09375 -10.597656 1.816406 -12.59375 3.265625 -14.125 C 4.722656 -15.664062 6.539062 -16.4375 8.71875 -16.4375 C 9.988281 -16.4375 11.109375 -16.144531 12.078125 -15.5625 C 13.046875 -14.988281 13.796875 -14.234375 14.328125 -13.296875 L 14.328125 -16.171875 L 17.703125 -16.171875 L 17.703125 0 L 14.328125 0 L 14.328125 -3.03125 C 13.773438 -2.03125 13.019531 -1.226562 12.0625 -0.625 C 11.101562 -0.03125 9.988281 0.265625 8.71875 0.265625 Z M 8.71875 0.265625 "/></g></g></g><g fill="#ffffff" fill-opacity="1"><g transform="translate(113.476312, 36.844129)"><g/></g></g><g fill="#ffffff" fill-opacity="1"><g transform="translate(122.284825, 36.844129)"><g><path d="M 15.15625 -20.40625 L 18.5 -20.40625 L 18.5 0 L 15.15625 0 L 15.15625 -9.015625 L 5.546875 -9.015625 L 5.546875 0 L 2.203125 0 L 2.203125 -20.40625 L 5.546875 -20.40625 L 5.546875 -11.59375 L 15.15625 -11.59375 Z M 15.15625 -20.40625 "/></g></g></g><g fill="#ffffff" fill-opacity="1"><g transform="translate(142.98483, 36.844129)"><g><path d="M 9.015625 0.265625 C 6.660156 0.265625 4.75 -0.492188 3.28125 -2.015625 C 1.820312 -3.546875 1.09375 -5.570312 1.09375 -8.09375 C 1.09375 -10.625 1.832031 -12.644531 3.3125 -14.15625 C 4.800781 -15.675781 6.722656 -16.4375 9.078125 -16.4375 C 11.441406 -16.4375 13.359375 -15.707031 14.828125 -14.25 C 16.296875 -12.789062 17.03125 -10.890625 17.03125 -8.546875 C 17.03125 -7.972656 16.988281 -7.441406 16.90625 -6.953125 L 4.515625 -6.953125 C 4.597656 -5.609375 5.054688 -4.535156 5.890625 -3.734375 C 6.722656 -2.941406 7.765625 -2.546875 9.015625 -2.546875 C 10.835938 -2.546875 12.117188 -3.300781 12.859375 -4.8125 L 16.46875 -4.8125 C 15.976562 -3.320312 15.085938 -2.101562 13.796875 -1.15625 C 12.503906 -0.207031 10.910156 0.265625 9.015625 0.265625 Z M 13.53125 -9.25 C 13.507812 -10.582031 13.066406 -11.644531 12.203125 -12.4375 C 11.347656 -13.226562 10.300781 -13.625 9.0625 -13.625 C 7.832031 -13.625 6.800781 -13.226562 5.96875 -12.4375 C 5.144531 -11.644531 4.671875 -10.582031 4.546875 -9.25 Z M 13.53125 -9.25 "/></g></g></g><g fill="#ffffff" fill-opacity="1"><g transform="translate(161.100999, 36.844129)"><g><path d="M 12.875 -4.125 C 13.84375 -5.113281 14.328125 -6.4375 14.328125 -8.09375 C 14.328125 -9.757812 13.84375 -11.082031 12.875 -12.0625 C 11.90625 -13.039062 10.753906 -13.53125 9.421875 -13.53125 C 8.085938 -13.53125 6.9375 -13.050781 5.96875 -12.09375 C 5 -11.132812 4.515625 -9.820312 4.515625 -8.15625 C 4.515625 -6.5 5 -5.164062 5.96875 -4.15625 C 6.9375 -3.144531 8.085938 -2.640625 9.421875 -2.640625 C 10.753906 -2.640625 11.90625 -3.132812 12.875 -4.125 Z M 8.71875 0.265625 C 6.5625 0.265625 4.75 -0.519531 3.28125 -2.09375 C 1.820312 -3.675781 1.09375 -5.691406 1.09375 -8.140625 C 1.09375 -10.597656 1.816406 -12.59375 3.265625 -14.125 C 4.722656 -15.664062 6.539062 -16.4375 8.71875 -16.4375 C 9.988281 -16.4375 11.109375 -16.144531 12.078125 -15.5625 C 13.046875 -14.988281 13.796875 -14.234375 14.328125 -13.296875 L 14.328125 -16.171875 L 17.703125 -16.171875 L 17.703125 0 L 14.328125 0 L 14.328125 -3.03125 C 13.773438 -2.03125 13.019531 -1.226562 12.0625 -0.625 C 11.101562 -0.03125 9.988281 0.265625 8.71875 0.265625 Z M 8.71875 0.265625 "/></g></g></g><g fill="#ffffff" fill-opacity="1"><g transform="translate(181.008237, 36.844129)"><g><path d="M 2.203125 0 L 2.203125 -21.71875 L 5.546875 -21.71875 L 5.546875 0 Z M 2.203125 0 "/></g></g></g><g fill="#ffffff" fill-opacity="1"><g transform="translate(188.759725, 36.844129)"><g><path d="M 10.046875 -13.453125 L 6.109375 -13.453125 L 6.109375 -4.484375 C 6.109375 -3.878906 6.25 -3.445312 6.53125 -3.1875 C 6.8125 -2.925781 7.296875 -2.796875 7.984375 -2.796875 L 10.046875 -2.796875 L 10.046875 0 L 7.40625 0 C 4.289062 0 2.734375 -1.492188 2.734375 -4.484375 L 2.734375 -13.453125 L 0.828125 -13.453125 L 0.828125 -16.171875 L 2.734375 -16.171875 L 2.734375 -20.203125 L 6.109375 -20.203125 L 6.109375 -16.171875 L 10.046875 -16.171875 Z M 10.046875 -13.453125 "/></g></g></g><g fill="#ffffff" fill-opacity="1"><g transform="translate(199.68228, 36.844129)"><g><path d="M 5.546875 -21.71875 L 5.546875 -13.625 C 6.617188 -15.5 8.34375 -16.4375 10.71875 -16.4375 C 12.539062 -16.4375 14.039062 -15.828125 15.21875 -14.609375 C 16.40625 -13.398438 17 -11.710938 17 -9.546875 L 17 0 L 13.6875 0 L 13.6875 -9.046875 C 13.6875 -10.492188 13.320312 -11.601562 12.59375 -12.375 C 11.875 -13.144531 10.882812 -13.53125 9.625 -13.53125 C 8.375 -13.53125 7.378906 -13.144531 6.640625 -12.375 C 5.910156 -11.601562 5.546875 -10.492188 5.546875 -9.046875 L 5.546875 0 L 2.203125 0 L 2.203125 -21.71875 Z M 5.546875 -21.71875 "/></g></g></g><g fill="#ffffff" fill-opacity="1"><g transform="translate(5.944883, 62.701446)"><g><path d="M 4.5 0 L 3.46875 0 L 3.46875 -4 L 0.21875 -10.140625 L 1.328125 -10.140625 L 3.96875 -4.9375 L 6.609375 -10.140625 L 7.71875 -10.140625 L 4.5 -4 Z M 4.5 0 "/></g></g></g><g fill="#ffffff" fill-opacity="1"><g transform="translate(13.887265, 62.701446)"><g><path d="M 4.46875 -0.671875 C 5.300781 -0.671875 6.019531 -0.96875 6.625 -1.5625 C 7.226562 -2.164062 7.53125 -2.984375 7.53125 -4.015625 C 7.53125 -5.046875 7.238281 -5.859375 6.65625 -6.453125 C 6.082031 -7.046875 5.378906 -7.34375 4.546875 -7.34375 C 3.722656 -7.34375 3.03125 -7.046875 2.46875 -6.453125 C 1.90625 -5.867188 1.625 -5.050781 1.625 -4 C 1.625 -2.957031 1.890625 -2.140625 2.421875 -1.546875 C 2.953125 -0.960938 3.632812 -0.671875 4.46875 -0.671875 Z M 4.46875 0.140625 C 3.320312 0.140625 2.390625 -0.238281 1.671875 -1 C 0.953125 -1.757812 0.59375 -2.757812 0.59375 -4 C 0.59375 -5.238281 0.972656 -6.242188 1.734375 -7.015625 C 2.492188 -7.785156 3.445312 -8.171875 4.59375 -8.171875 C 5.738281 -8.171875 6.691406 -7.785156 7.453125 -7.015625 C 8.222656 -6.242188 8.609375 -5.242188 8.609375 -4.015625 C 8.609375 -2.785156 8.207031 -1.785156 7.40625 -1.015625 C 6.601562 -0.242188 5.625 0.140625 4.46875 0.140625 Z M 4.46875 0.140625 "/></g></g></g><g fill="#ffffff" fill-opacity="1"><g transform="translate(23.077527, 62.701446)"><g><path d="M 6.8125 -8.015625 L 7.84375 -8.015625 L 7.84375 0 L 6.8125 0 L 6.8125 -1.3125 C 6.269531 -0.34375 5.382812 0.140625 4.15625 0.140625 C 3.257812 0.140625 2.515625 -0.144531 1.921875 -0.71875 C 1.328125 -1.300781 1.03125 -2.144531 1.03125 -3.25 L 1.03125 -8.015625 L 2.046875 -8.015625 L 2.046875 -3.4375 C 2.046875 -2.550781 2.253906 -1.878906 2.671875 -1.421875 C 3.097656 -0.960938 3.679688 -0.734375 4.421875 -0.734375 C 5.160156 -0.734375 5.742188 -0.960938 6.171875 -1.421875 C 6.597656 -1.878906 6.8125 -2.550781 6.8125 -3.4375 Z M 6.8125 -8.015625 "/></g></g></g><g fill="#ffffff" fill-opacity="1"><g transform="translate(32.018212, 62.701446)"><g><path d="M 2.125 -8.015625 L 2.125 -6.703125 C 2.570312 -7.679688 3.398438 -8.171875 4.609375 -8.171875 L 4.609375 -7.09375 L 4.3125 -7.09375 C 3.613281 -7.09375 3.070312 -6.898438 2.6875 -6.515625 C 2.3125 -6.140625 2.125 -5.484375 2.125 -4.546875 L 2.125 0 L 1.109375 0 L 1.109375 -8.015625 Z M 2.125 -8.015625 "/></g></g></g><g fill="#ffffff" fill-opacity="1"><g transform="translate(37.200578, 62.701446)"><g/></g></g><g fill="#ffffff" fill-opacity="1"><g transform="translate(41.604862, 62.701446)"><g><path d="M 2.125 -10.875 L 2.125 -6.71875 C 2.664062 -7.6875 3.550781 -8.171875 4.78125 -8.171875 C 5.675781 -8.171875 6.421875 -7.878906 7.015625 -7.296875 C 7.617188 -6.710938 7.921875 -5.875 7.921875 -4.78125 L 7.921875 0 L 6.90625 0 L 6.90625 -4.578125 C 6.90625 -5.460938 6.691406 -6.132812 6.265625 -6.59375 C 5.835938 -7.050781 5.253906 -7.28125 4.515625 -7.28125 C 3.773438 -7.28125 3.191406 -7.050781 2.765625 -6.59375 C 2.335938 -6.132812 2.125 -5.460938 2.125 -4.578125 L 2.125 0 L 1.109375 0 L 1.109375 -10.875 Z M 2.125 -10.875 "/></g></g></g><g fill="#ffffff" fill-opacity="1"><g transform="translate(50.545547, 62.701446)"><g><path d="M 4.453125 0.140625 C 3.304688 0.140625 2.375 -0.238281 1.65625 -1 C 0.945312 -1.757812 0.59375 -2.765625 0.59375 -4.015625 C 0.59375 -5.265625 0.957031 -6.269531 1.6875 -7.03125 C 2.414062 -7.789062 3.359375 -8.171875 4.515625 -8.171875 C 5.671875 -8.171875 6.59375 -7.8125 7.28125 -7.09375 C 7.96875 -6.375 8.3125 -5.488281 8.3125 -4.4375 C 8.3125 -4.15625 8.289062 -3.890625 8.25 -3.640625 L 1.640625 -3.640625 C 1.679688 -2.722656 1.960938 -2 2.484375 -1.46875 C 3.003906 -0.9375 3.660156 -0.671875 4.453125 -0.671875 C 5.066406 -0.671875 5.59375 -0.8125 6.03125 -1.09375 C 6.46875 -1.382812 6.769531 -1.757812 6.9375 -2.21875 L 8.03125 -2.21875 C 7.769531 -1.53125 7.335938 -0.960938 6.734375 -0.515625 C 6.140625 -0.078125 5.378906 0.140625 4.453125 0.140625 Z M 7.25 -4.453125 C 7.25 -5.328125 6.984375 -6.023438 6.453125 -6.546875 C 5.921875 -7.078125 5.257812 -7.34375 4.46875 -7.34375 C 3.6875 -7.34375 3.03125 -7.082031 2.5 -6.5625 C 1.976562 -6.050781 1.691406 -5.347656 1.640625 -4.453125 Z M 7.25 -4.453125 "/></g></g></g><g fill="#ffffff" fill-opacity="1"><g transform="translate(59.427509, 62.701446)"><g><path d="M 6.71875 -1.640625 C 7.300781 -2.242188 7.59375 -3.035156 7.59375 -4.015625 C 7.59375 -4.992188 7.300781 -5.78125 6.71875 -6.375 C 6.132812 -6.976562 5.429688 -7.28125 4.609375 -7.28125 C 3.785156 -7.28125 3.082031 -6.988281 2.5 -6.40625 C 1.925781 -5.832031 1.640625 -5.050781 1.640625 -4.0625 C 1.640625 -3.082031 1.929688 -2.28125 2.515625 -1.65625 C 3.097656 -1.039062 3.796875 -0.734375 4.609375 -0.734375 C 5.429688 -0.734375 6.132812 -1.035156 6.71875 -1.640625 Z M 4.46875 0.140625 C 3.351562 0.140625 2.425781 -0.253906 1.6875 -1.046875 C 0.957031 -1.835938 0.59375 -2.847656 0.59375 -4.078125 C 0.59375 -5.304688 0.957031 -6.296875 1.6875 -7.046875 C 2.414062 -7.796875 3.34375 -8.171875 4.46875 -8.171875 C 5.1875 -8.171875 5.820312 -7.992188 6.375 -7.640625 C 6.925781 -7.285156 7.332031 -6.828125 7.59375 -6.265625 L 7.59375 -8.015625 L 8.625 -8.015625 L 8.625 0 L 7.59375 0 L 7.59375 -1.765625 C 7.332031 -1.203125 6.925781 -0.742188 6.375 -0.390625 C 5.820312 -0.0351562 5.1875 0.140625 4.46875 0.140625 Z M 4.46875 0.140625 "/></g></g></g><g fill="#ffffff" fill-opacity="1"><g transform="translate(69.146288, 62.701446)"><g><path d="M 1.109375 0 L 1.109375 -10.875 L 2.125 -10.875 L 2.125 0 Z M 1.109375 0 "/></g></g></g><g fill="#ffffff" fill-opacity="1"><g transform="translate(72.376089, 62.701446)"><g><path d="M 4.671875 -7.21875 L 2.453125 -7.21875 L 2.453125 -1.890625 C 2.453125 -1.492188 2.53125 -1.210938 2.6875 -1.046875 C 2.84375 -0.890625 3.125 -0.8125 3.53125 -0.8125 L 4.671875 -0.8125 L 4.671875 0 L 3.3125 0 C 2.050781 0 1.421875 -0.628906 1.421875 -1.890625 L 1.421875 -7.21875 L 0.3125 -7.21875 L 0.3125 -8.015625 L 1.421875 -8.015625 L 1.421875 -10.03125 L 2.453125 -10.03125 L 2.453125 -8.015625 L 4.671875 -8.015625 Z M 4.671875 -7.21875 "/></g></g></g><g fill="#ffffff" fill-opacity="1"><g transform="translate(77.35293, 62.701446)"><g><path d="M 2.125 -10.875 L 2.125 -6.71875 C 2.664062 -7.6875 3.550781 -8.171875 4.78125 -8.171875 C 5.675781 -8.171875 6.421875 -7.878906 7.015625 -7.296875 C 7.617188 -6.710938 7.921875 -5.875 7.921875 -4.78125 L 7.921875 0 L 6.90625 0 L 6.90625 -4.578125 C 6.90625 -5.460938 6.691406 -6.132812 6.265625 -6.59375 C 5.835938 -7.050781 5.253906 -7.28125 4.515625 -7.28125 C 3.773438 -7.28125 3.191406 -7.050781 2.765625 -6.59375 C 2.335938 -6.132812 2.125 -5.460938 2.125 -4.578125 L 2.125 0 L 1.109375 0 L 1.109375 -10.875 Z M 2.125 -10.875 "/></g></g></g><g fill="#ffffff" fill-opacity="1"><g transform="translate(86.293615, 62.701446)"><g/></g></g><g fill="#ffffff" fill-opacity="1"><g transform="translate(90.697899, 62.701446)"><g><path d="M 3.390625 -0.125 L 0.203125 -8.015625 L 1.3125 -8.015625 L 3.953125 -1.203125 L 6.59375 -8.015625 L 7.640625 -8.015625 L 2.875 3.734375 L 1.84375 3.734375 Z M 3.390625 -0.125 "/></g></g></g><g fill="#ffffff" fill-opacity="1"><g transform="translate(98.552202, 62.701446)"><g><path d="M 4.46875 -0.671875 C 5.300781 -0.671875 6.019531 -0.96875 6.625 -1.5625 C 7.226562 -2.164062 7.53125 -2.984375 7.53125 -4.015625 C 7.53125 -5.046875 7.238281 -5.859375 6.65625 -6.453125 C 6.082031 -7.046875 5.378906 -7.34375 4.546875 -7.34375 C 3.722656 -7.34375 3.03125 -7.046875 2.46875 -6.453125 C 1.90625 -5.867188 1.625 -5.050781 1.625 -4 C 1.625 -2.957031 1.890625 -2.140625 2.421875 -1.546875 C 2.953125 -0.960938 3.632812 -0.671875 4.46875 -0.671875 Z M 4.46875 0.140625 C 3.320312 0.140625 2.390625 -0.238281 1.671875 -1 C 0.953125 -1.757812 0.59375 -2.757812 0.59375 -4 C 0.59375 -5.238281 0.972656 -6.242188 1.734375 -7.015625 C 2.492188 -7.785156 3.445312 -8.171875 4.59375 -8.171875 C 5.738281 -8.171875 6.691406 -7.785156 7.453125 -7.015625 C 8.222656 -6.242188 8.609375 -5.242188 8.609375 -4.015625 C 8.609375 -2.785156 8.207031 -1.785156 7.40625 -1.015625 C 6.601562 -0.242188 5.625 0.140625 4.46875 0.140625 Z M 4.46875 0.140625 "/></g></g></g><g fill="#ffffff" fill-opacity="1"><g transform="translate(107.742463, 62.701446)"><g><path d="M 6.8125 -8.015625 L 7.84375 -8.015625 L 7.84375 0 L 6.8125 0 L 6.8125 -1.3125 C 6.269531 -0.34375 5.382812 0.140625 4.15625 0.140625 C 3.257812 0.140625 2.515625 -0.144531 1.921875 -0.71875 C 1.328125 -1.300781 1.03125 -2.144531 1.03125 -3.25 L 1.03125 -8.015625 L 2.046875 -8.015625 L 2.046875 -3.4375 C 2.046875 -2.550781 2.253906 -1.878906 2.671875 -1.421875 C 3.097656 -0.960938 3.679688 -0.734375 4.421875 -0.734375 C 5.160156 -0.734375 5.742188 -0.960938 6.171875 -1.421875 C 6.597656 -1.878906 6.8125 -2.550781 6.8125 -3.4375 Z M 6.8125 -8.015625 "/></g></g></g><g fill="#ffffff" fill-opacity="1"><g transform="translate(116.683148, 62.701446)"><g><path d="M 2.125 -8.015625 L 2.125 -6.703125 C 2.570312 -7.679688 3.398438 -8.171875 4.609375 -8.171875 L 4.609375 -7.09375 L 4.3125 -7.09375 C 3.613281 -7.09375 3.070312 -6.898438 2.6875 -6.515625 C 2.3125 -6.140625 2.125 -5.484375 2.125 -4.546875 L 2.125 0 L 1.109375 0 L 1.109375 -8.015625 Z M 2.125 -8.015625 "/></g></g></g><g fill="#ffffff" fill-opacity="1"><g transform="translate(121.865515, 62.701446)"><g/></g></g><g fill="#ffffff" fill-opacity="1"><g transform="translate(126.269798, 62.701446)"><g><path d="M 10.34375 -8.015625 L 11.421875 -8.015625 L 8.875 0 L 7.828125 0 L 5.828125 -6.75 L 3.828125 0 L 2.796875 0 L 0.203125 -8.015625 L 1.296875 -8.015625 L 3.3125 -1.109375 L 5.375 -8.015625 L 6.40625 -8.015625 L 8.34375 -1.109375 Z M 10.34375 -8.015625 "/></g></g></g><g fill="#ffffff" fill-opacity="1"><g transform="translate(137.897093, 62.701446)"><g><path d="M 4.453125 0.140625 C 3.304688 0.140625 2.375 -0.238281 1.65625 -1 C 0.945312 -1.757812 0.59375 -2.765625 0.59375 -4.015625 C 0.59375 -5.265625 0.957031 -6.269531 1.6875 -7.03125 C 2.414062 -7.789062 3.359375 -8.171875 4.515625 -8.171875 C 5.671875 -8.171875 6.59375 -7.8125 7.28125 -7.09375 C 7.96875 -6.375 8.3125 -5.488281 8.3125 -4.4375 C 8.3125 -4.15625 8.289062 -3.890625 8.25 -3.640625 L 1.640625 -3.640625 C 1.679688 -2.722656 1.960938 -2 2.484375 -1.46875 C 3.003906 -0.9375 3.660156 -0.671875 4.453125 -0.671875 C 5.066406 -0.671875 5.59375 -0.8125 6.03125 -1.09375 C 6.46875 -1.382812 6.769531 -1.757812 6.9375 -2.21875 L 8.03125 -2.21875 C 7.769531 -1.53125 7.335938 -0.960938 6.734375 -0.515625 C 6.140625 -0.078125 5.378906 0.140625 4.453125 0.140625 Z M 7.25 -4.453125 C 7.25 -5.328125 6.984375 -6.023438 6.453125 -6.546875 C 5.921875 -7.078125 5.257812 -7.34375 4.46875 -7.34375 C 3.6875 -7.34375 3.03125 -7.082031 2.5 -6.5625 C 1.976562 -6.050781 1.691406 -5.347656 1.640625 -4.453125 Z M 7.25 -4.453125 "/></g></g></g><g fill="#ffffff" fill-opacity="1"><g transform="translate(146.779055, 62.701446)"><g><path d="M 6.71875 -1.640625 C 7.300781 -2.242188 7.59375 -3.035156 7.59375 -4.015625 C 7.59375 -4.992188 7.300781 -5.78125 6.71875 -6.375 C 6.132812 -6.976562 5.429688 -7.28125 4.609375 -7.28125 C 3.785156 -7.28125 3.082031 -6.988281 2.5 -6.40625 C 1.925781 -5.832031 1.640625 -5.050781 1.640625 -4.0625 C 1.640625 -3.082031 1.929688 -2.28125 2.515625 -1.65625 C 3.097656 -1.039062 3.796875 -0.734375 4.609375 -0.734375 C 5.429688 -0.734375 6.132812 -1.035156 6.71875 -1.640625 Z M 4.46875 0.140625 C 3.351562 0.140625 2.425781 -0.253906 1.6875 -1.046875 C 0.957031 -1.835938 0.59375 -2.847656 0.59375 -4.078125 C 0.59375 -5.304688 0.957031 -6.296875 1.6875 -7.046875 C 2.414062 -7.796875 3.34375 -8.171875 4.46875 -8.171875 C 5.1875 -8.171875 5.820312 -7.992188 6.375 -7.640625 C 6.925781 -7.285156 7.332031 -6.828125 7.59375 -6.265625 L 7.59375 -8.015625 L 8.625 -8.015625 L 8.625 0 L 7.59375 0 L 7.59375 -1.765625 C 7.332031 -1.203125 6.925781 -0.742188 6.375 -0.390625 C 5.820312 -0.0351562 5.1875 0.140625 4.46875 0.140625 Z M 4.46875 0.140625 "/></g></g></g><g fill="#ffffff" fill-opacity="1"><g transform="translate(156.497834, 62.701446)"><g><path d="M 1.109375 0 L 1.109375 -10.875 L 2.125 -10.875 L 2.125 0 Z M 1.109375 0 "/></g></g></g><g fill="#ffffff" fill-opacity="1"><g transform="translate(159.727635, 62.701446)"><g><path d="M 4.671875 -7.21875 L 2.453125 -7.21875 L 2.453125 -1.890625 C 2.453125 -1.492188 2.53125 -1.210938 2.6875 -1.046875 C 2.84375 -0.890625 3.125 -0.8125 3.53125 -0.8125 L 4.671875 -0.8125 L 4.671875 0 L 3.3125 0 C 2.050781 0 1.421875 -0.628906 1.421875 -1.890625 L 1.421875 -7.21875 L 0.3125 -7.21875 L 0.3125 -8.015625 L 1.421875 -8.015625 L 1.421875 -10.03125 L 2.453125 -10.03125 L 2.453125 -8.015625 L 4.671875 -8.015625 Z M 4.671875 -7.21875 "/></g></g></g><g fill="#ffffff" fill-opacity="1"><g transform="translate(164.704476, 62.701446)"><g><path d="M 2.125 -10.875 L 2.125 -6.71875 C 2.664062 -7.6875 3.550781 -8.171875 4.78125 -8.171875 C 5.675781 -8.171875 6.421875 -7.878906 7.015625 -7.296875 C 7.617188 -6.710938 7.921875 -5.875 7.921875 -4.78125 L 7.921875 0 L 6.90625 0 L 6.90625 -4.578125 C 6.90625 -5.460938 6.691406 -6.132812 6.265625 -6.59375 C 5.835938 -7.050781 5.253906 -7.28125 4.515625 -7.28125 C 3.773438 -7.28125 3.191406 -7.050781 2.765625 -6.59375 C 2.335938 -6.132812 2.125 -5.460938 2.125 -4.578125 L 2.125 0 L 1.109375 0 L 1.109375 -10.875 Z M 2.125 -10.875 "/></g></g></g></svg>