<svg xmlns="http://www.w3.org/2000/svg" xmlns:xlink="http://www.w3.org/1999/xlink" width="390" zoomAndPan="magnify" viewBox="0 0 292.5 111.749996" height="149" preserveAspectRatio="xMidYMid meet" version="1.0"><defs><g/><clipPath id="b0d162f22a"><path d="M 2 4 L 116 4 L 116 111.441406 L 2 111.441406 Z M 2 4 " clip-rule="nonzero"/></clipPath><clipPath id="b0624d95fe"><path d="M 10 0.6875 L 116 0.6875 L 116 105 L 10 105 Z M 10 0.6875 " clip-rule="nonzero"/></clipPath><clipPath id="15a439ef25"><path d="M 0.746094 51 L 7 51 L 7 59 L 0.746094 59 Z M 0.746094 51 " clip-rule="nonzero"/></clipPath><clipPath id="e38de9a2f2"><path d="M 113 40 L 118.980469 40 L 118.980469 47 L 113 47 Z M 113 40 " clip-rule="nonzero"/></clipPath></defs><g clip-path="url(#b0d162f22a)"><path fill="#41c4ab" d="M 2.515625 32.890625 C 2.695312 30.089844 3.304688 27.382812 4.351562 24.777344 C 5.394531 22.167969 6.820312 19.789062 8.625 17.636719 C 12.742188 12.761719 18.800781 9.90625 24.921875 8.34375 C 32.164062 6.5 39.683594 6.417969 47.09375 5.875 C 54.785156 5.339844 62.464844 4.34375 70.1875 4.425781 C 77.910156 4.507812 85.773438 5.609375 93.523438 6.449219 C 97.164062 6.84375 100.859375 7.089844 104.464844 7.71875 C 107.371094 8.21875 110.230469 9.230469 112.222656 11.507812 C 115.753906 15.621094 115.515625 21.792969 114.117188 26.679688 C 112.230469 33.261719 108.351562 39.375 108.910156 46.472656 C 109.199219 50.175781 110.394531 53.730469 111.152344 57.347656 C 111.765625 60.265625 112.039062 63.210938 111.976562 66.191406 C 111.839844 71.109375 110.851562 75.851562 109.011719 80.414062 C 108.640625 82.480469 108.1875 84.527344 107.691406 86.5625 C 106.113281 92.609375 103.355469 98.53125 98.382812 102.527344 C 96.152344 104.375 93.621094 105.589844 90.789062 106.171875 C 87.207031 106.863281 83.558594 106.246094 79.96875 105.925781 C 78.136719 105.742188 76.300781 105.726562 74.460938 105.878906 C 72.609375 106.089844 70.785156 106.453125 68.996094 106.972656 C 65.503906 107.933594 62.128906 109.265625 58.621094 110.148438 C 55.273438 111.109375 51.875 111.347656 48.425781 110.855469 C 45.476562 110.285156 42.894531 108.988281 40.679688 106.964844 C 36.414062 103.203125 33.558594 98.101562 28.980469 94.664062 C 24.542969 91.398438 19.273438 89.34375 15.367188 85.441406 C 13.316406 83.417969 11.984375 80.996094 11.367188 78.179688 C 10.699219 75.035156 10.9375 71.785156 11.1875 68.609375 C 11.433594 65.320312 11.746094 61.914062 11.097656 58.632812 C 10.445312 55.347656 8.714844 52.355469 7.035156 49.449219 C 5.425781 46.871094 4.171875 44.128906 3.273438 41.222656 C 2.5625 38.488281 2.308594 35.710938 2.515625 32.890625 Z M 2.515625 32.890625 " fill-opacity="1" fill-rule="nonzero"/></g><g clip-path="url(#b0624d95fe)"><path fill="#fff1e6" d="M 115.113281 67.277344 C 114.023438 73.367188 111.042969 78.992188 107.296875 83.789062 C 103.492188 88.707031 98.828125 92.589844 93.300781 95.445312 C 87.539062 98.390625 81.3125 100.101562 75.121094 101.757812 C 69.117188 103.351562 62.835938 105.046875 56.59375 104.222656 C 53.503906 103.808594 50.644531 102.761719 48.015625 101.089844 C 45.421875 99.484375 42.945312 97.714844 39.9375 97.015625 C 34.621094 95.773438 29.085938 97.132812 23.75 96.003906 C 22.496094 95.765625 21.3125 95.332031 20.203125 94.699219 C 19.09375 94.070312 18.117188 93.277344 17.269531 92.320312 C 15.714844 90.390625 14.78125 88.199219 14.480469 85.738281 C 13.65625 79.871094 15.566406 74.328125 17.121094 68.785156 C 18.191406 65.492188 18.703125 62.117188 18.652344 58.65625 C 18.464844 55.152344 17.007812 52.074219 15.359375 49.082031 C 9.597656 38.386719 9.433594 25.832031 13.714844 14.527344 C 15.285156 10.339844 17.996094 6.484375 21.839844 4.210938 C 23.023438 3.515625 24.269531 2.949219 25.570312 2.511719 C 26.875 2.074219 28.210938 1.773438 29.574219 1.617188 C 30.941406 1.457031 32.308594 1.4375 33.675781 1.566406 C 35.042969 1.691406 36.386719 1.957031 37.699219 2.359375 C 40.695312 3.316406 43.394531 5.222656 46.574219 5.554688 C 49.753906 5.882812 52.617188 4.828125 55.484375 3.785156 C 58.347656 2.738281 61.246094 1.496094 64.335938 1.117188 C 67.644531 0.789062 70.890625 1.089844 74.082031 2.023438 C 77.34375 2.976562 80.519531 4.160156 83.609375 5.578125 L 93.34375 9.839844 C 96.273438 11.121094 99.261719 12.308594 102.117188 13.773438 C 104.394531 14.847656 106.441406 16.261719 108.253906 18.007812 C 109.148438 18.886719 109.867188 19.890625 110.402344 21.019531 C 110.941406 22.152344 111.265625 23.34375 111.382812 24.589844 C 111.605469 27.511719 110.558594 30.347656 109.660156 33.046875 C 108.691406 36 107.949219 38.945312 108.574219 42.097656 C 109.160156 44.976562 110.550781 47.589844 111.867188 50.175781 C 113.324219 52.765625 114.402344 55.507812 115.09375 58.402344 C 115.652344 61.359375 115.660156 64.316406 115.113281 67.277344 Z M 115.113281 67.277344 " fill-opacity="1" fill-rule="nonzero"/></g><g clip-path="url(#15a439ef25)"><path fill="#41c4ab" d="M 6.46875 54.914062 C 6.46875 55.335938 6.394531 55.738281 6.25 56.128906 C 6.105469 56.515625 5.898438 56.859375 5.628906 57.160156 C 5.359375 57.457031 5.050781 57.6875 4.699219 57.847656 C 4.347656 58.007812 3.984375 58.089844 3.601562 58.089844 C 3.222656 58.089844 2.859375 58.007812 2.507812 57.847656 C 2.15625 57.6875 1.847656 57.457031 1.578125 57.160156 C 1.308594 56.859375 1.101562 56.515625 0.957031 56.128906 C 0.808594 55.738281 0.738281 55.335938 0.738281 54.914062 C 0.738281 54.492188 0.808594 54.085938 0.957031 53.699219 C 1.101562 53.308594 1.308594 52.964844 1.578125 52.667969 C 1.847656 52.371094 2.15625 52.140625 2.507812 51.980469 C 2.859375 51.816406 3.222656 51.738281 3.601562 51.738281 C 3.984375 51.738281 4.347656 51.816406 4.699219 51.980469 C 5.050781 52.140625 5.359375 52.371094 5.628906 52.667969 C 5.898438 52.964844 6.105469 53.308594 6.25 53.699219 C 6.394531 54.085938 6.46875 54.492188 6.46875 54.914062 Z M 6.46875 54.914062 " fill-opacity="1" fill-rule="nonzero"/></g><path fill="#41c4ab" d="M 9.25 61.9375 C 9.25 62.214844 9.203125 62.476562 9.109375 62.730469 C 9.015625 62.984375 8.878906 63.210938 8.703125 63.40625 C 8.527344 63.597656 8.328125 63.75 8.097656 63.855469 C 7.867188 63.960938 7.628906 64.011719 7.382812 64.011719 C 7.132812 64.011719 6.894531 63.960938 6.667969 63.855469 C 6.4375 63.75 6.234375 63.597656 6.0625 63.40625 C 5.886719 63.210938 5.75 62.984375 5.65625 62.730469 C 5.5625 62.476562 5.511719 62.214844 5.511719 61.9375 C 5.511719 61.664062 5.5625 61.398438 5.65625 61.144531 C 5.75 60.890625 5.886719 60.667969 6.0625 60.472656 C 6.234375 60.277344 6.4375 60.128906 6.667969 60.023438 C 6.894531 59.917969 7.132812 59.867188 7.382812 59.867188 C 7.628906 59.867188 7.867188 59.917969 8.097656 60.023438 C 8.328125 60.128906 8.527344 60.277344 8.703125 60.472656 C 8.878906 60.667969 9.015625 60.890625 9.109375 61.144531 C 9.203125 61.398438 9.25 61.664062 9.25 61.9375 Z M 9.25 61.9375 " fill-opacity="1" fill-rule="nonzero"/><g clip-path="url(#e38de9a2f2)"><path fill="#41c4ab" d="M 118.972656 43.660156 C 118.972656 44.082031 118.902344 44.484375 118.753906 44.875 C 118.609375 45.261719 118.402344 45.605469 118.132812 45.90625 C 117.867188 46.203125 117.554688 46.433594 117.203125 46.59375 C 116.851562 46.753906 116.488281 46.835938 116.109375 46.835938 C 115.726562 46.835938 115.363281 46.753906 115.011719 46.59375 C 114.660156 46.433594 114.351562 46.203125 114.082031 45.90625 C 113.8125 45.605469 113.605469 45.261719 113.460938 44.875 C 113.316406 44.484375 113.242188 44.082031 113.242188 43.660156 C 113.242188 43.238281 113.316406 42.832031 113.460938 42.445312 C 113.605469 42.054688 113.8125 41.710938 114.082031 41.414062 C 114.351562 41.117188 114.660156 40.886719 115.011719 40.726562 C 115.363281 40.5625 115.726562 40.484375 116.109375 40.484375 C 116.488281 40.484375 116.851562 40.5625 117.203125 40.726562 C 117.554688 40.886719 117.867188 41.117188 118.132812 41.414062 C 118.402344 41.710938 118.609375 42.054688 118.753906 42.445312 C 118.902344 42.832031 118.972656 43.238281 118.972656 43.660156 Z M 118.972656 43.660156 " fill-opacity="1" fill-rule="nonzero"/></g><path fill="#41c4ab" d="M 11.402344 11.296875 C 11.402344 11.570312 11.351562 11.835938 11.257812 12.089844 C 11.164062 12.34375 11.027344 12.566406 10.851562 12.761719 C 10.679688 12.957031 10.476562 13.105469 10.246094 13.210938 C 10.019531 13.316406 9.777344 13.367188 9.53125 13.367188 C 9.285156 13.367188 9.046875 13.316406 8.816406 13.210938 C 8.585938 13.105469 8.386719 12.957031 8.210938 12.761719 C 8.035156 12.566406 7.898438 12.34375 7.804688 12.089844 C 7.710938 11.835938 7.664062 11.570312 7.664062 11.296875 C 7.664062 11.019531 7.710938 10.757812 7.804688 10.503906 C 7.898438 10.25 8.035156 10.023438 8.210938 9.828125 C 8.386719 9.636719 8.585938 9.484375 8.816406 9.378906 C 9.046875 9.273438 9.285156 9.222656 9.53125 9.222656 C 9.777344 9.222656 10.019531 9.273438 10.246094 9.378906 C 10.476562 9.484375 10.679688 9.636719 10.851562 9.828125 C 11.027344 10.023438 11.164062 10.25 11.257812 10.503906 C 11.351562 10.757812 11.402344 11.019531 11.402344 11.296875 Z M 11.402344 11.296875 " fill-opacity="1" fill-rule="nonzero"/><g fill="#000000" fill-opacity="1"><g transform="translate(25.126842, 57.475996)"><g><path d="M 2.484375 0 L 2.484375 -18.109375 L 4.859375 -18.109375 L 11.40625 -6.734375 L 13.359375 -2.984375 L 13.46875 -2.984375 C 13.414062 -3.898438 13.359375 -4.847656 13.296875 -5.828125 C 13.234375 -6.816406 13.203125 -7.789062 13.203125 -8.75 L 13.203125 -18.109375 L 15.375 -18.109375 L 15.375 0 L 13 0 L 6.4375 -11.40625 L 4.46875 -15.125 L 4.359375 -15.125 C 4.429688 -14.207031 4.5 -13.273438 4.5625 -12.328125 C 4.632812 -11.378906 4.671875 -10.425781 4.671875 -9.46875 L 4.671875 0 Z M 2.484375 0 "/></g></g></g><g fill="#000000" fill-opacity="1"><g transform="translate(42.988005, 57.475996)"><g><path d="M 5.359375 0.328125 C 4.234375 0.328125 3.296875 0 2.546875 -0.65625 C 1.804688 -1.320312 1.4375 -2.265625 1.4375 -3.484375 C 1.4375 -4.953125 2.085938 -6.078125 3.390625 -6.859375 C 4.703125 -7.640625 6.789062 -8.1875 9.65625 -8.5 C 9.65625 -8.925781 9.613281 -9.34375 9.53125 -9.75 C 9.457031 -10.15625 9.316406 -10.515625 9.109375 -10.828125 C 8.910156 -11.140625 8.628906 -11.390625 8.265625 -11.578125 C 7.910156 -11.773438 7.457031 -11.875 6.90625 -11.875 C 6.132812 -11.875 5.40625 -11.722656 4.71875 -11.421875 C 4.039062 -11.128906 3.4375 -10.800781 2.90625 -10.4375 L 2.015625 -12.015625 C 2.640625 -12.421875 3.398438 -12.8125 4.296875 -13.1875 C 5.203125 -13.5625 6.195312 -13.75 7.28125 -13.75 C 8.925781 -13.75 10.113281 -13.242188 10.84375 -12.234375 C 11.582031 -11.234375 11.953125 -9.898438 11.953125 -8.234375 L 11.953125 0 L 10.078125 0 L 9.890625 -1.59375 L 9.796875 -1.59375 C 9.148438 -1.0625 8.457031 -0.609375 7.71875 -0.234375 C 6.988281 0.140625 6.203125 0.328125 5.359375 0.328125 Z M 6.015625 -1.484375 C 6.660156 -1.484375 7.269531 -1.632812 7.84375 -1.9375 C 8.414062 -2.25 9.019531 -2.695312 9.65625 -3.28125 L 9.65625 -7.015625 C 8.539062 -6.867188 7.597656 -6.691406 6.828125 -6.484375 C 6.066406 -6.285156 5.453125 -6.046875 4.984375 -5.765625 C 4.515625 -5.492188 4.171875 -5.175781 3.953125 -4.8125 C 3.742188 -4.457031 3.640625 -4.066406 3.640625 -3.640625 C 3.640625 -2.867188 3.867188 -2.316406 4.328125 -1.984375 C 4.796875 -1.648438 5.359375 -1.484375 6.015625 -1.484375 Z M 6.015625 -1.484375 "/></g></g></g><g fill="#000000" fill-opacity="1"><g transform="translate(56.901492, 57.475996)"><g><path d="M 2.265625 0 L 2.265625 -13.421875 L 4.140625 -13.421875 L 4.328125 -11.484375 L 4.421875 -11.484375 C 5.003906 -12.128906 5.640625 -12.664062 6.328125 -13.09375 C 7.023438 -13.53125 7.78125 -13.75 8.59375 -13.75 C 9.613281 -13.75 10.414062 -13.519531 11 -13.0625 C 11.582031 -12.613281 12.007812 -11.988281 12.28125 -11.1875 C 12.976562 -11.957031 13.679688 -12.578125 14.390625 -13.046875 C 15.109375 -13.515625 15.878906 -13.75 16.703125 -13.75 C 18.085938 -13.75 19.113281 -13.304688 19.78125 -12.421875 C 20.457031 -11.535156 20.796875 -10.226562 20.796875 -8.5 L 20.796875 0 L 18.53125 0 L 18.53125 -8.203125 C 18.53125 -9.472656 18.328125 -10.390625 17.921875 -10.953125 C 17.515625 -11.515625 16.890625 -11.796875 16.046875 -11.796875 C 15.023438 -11.796875 13.898438 -11.101562 12.671875 -9.71875 L 12.671875 0 L 10.40625 0 L 10.40625 -8.203125 C 10.40625 -9.472656 10.203125 -10.390625 9.796875 -10.953125 C 9.390625 -11.515625 8.753906 -11.796875 7.890625 -11.796875 C 6.878906 -11.796875 5.757812 -11.101562 4.53125 -9.71875 L 4.53125 0 Z M 2.265625 0 "/></g></g></g><g fill="#000000" fill-opacity="1"><g transform="translate(79.786965, 57.475996)"><g><path d="M 7.703125 0.328125 C 6.796875 0.328125 5.953125 0.164062 5.171875 -0.15625 C 4.390625 -0.476562 3.707031 -0.9375 3.125 -1.53125 C 2.550781 -2.125 2.097656 -2.851562 1.765625 -3.71875 C 1.429688 -4.59375 1.265625 -5.582031 1.265625 -6.6875 C 1.265625 -7.789062 1.4375 -8.773438 1.78125 -9.640625 C 2.125 -10.515625 2.570312 -11.253906 3.125 -11.859375 C 3.6875 -12.472656 4.328125 -12.941406 5.046875 -13.265625 C 5.765625 -13.585938 6.507812 -13.75 7.28125 -13.75 C 8.132812 -13.75 8.894531 -13.597656 9.5625 -13.296875 C 10.238281 -13.003906 10.800781 -12.582031 11.25 -12.03125 C 11.695312 -11.476562 12.039062 -10.816406 12.28125 -10.046875 C 12.519531 -9.273438 12.640625 -8.410156 12.640625 -7.453125 C 12.640625 -7.210938 12.632812 -6.976562 12.625 -6.75 C 12.625 -6.519531 12.601562 -6.320312 12.5625 -6.15625 L 3.5 -6.15625 C 3.59375 -4.71875 4.039062 -3.578125 4.84375 -2.734375 C 5.644531 -1.898438 6.691406 -1.484375 7.984375 -1.484375 C 8.628906 -1.484375 9.222656 -1.582031 9.765625 -1.78125 C 10.304688 -1.976562 10.820312 -2.234375 11.3125 -2.546875 L 12.125 -1.046875 C 11.53125 -0.679688 10.875 -0.359375 10.15625 -0.078125 C 9.4375 0.191406 8.617188 0.328125 7.703125 0.328125 Z M 3.484375 -7.78125 L 10.65625 -7.78125 C 10.65625 -9.144531 10.363281 -10.179688 9.78125 -10.890625 C 9.207031 -11.597656 8.394531 -11.953125 7.34375 -11.953125 C 6.863281 -11.953125 6.40625 -11.859375 5.96875 -11.671875 C 5.539062 -11.492188 5.148438 -11.222656 4.796875 -10.859375 C 4.453125 -10.503906 4.164062 -10.066406 3.9375 -9.546875 C 3.707031 -9.035156 3.554688 -8.445312 3.484375 -7.78125 Z M 3.484375 -7.78125 "/></g></g></g></svg>