<svg xmlns="http://www.w3.org/2000/svg" xmlns:xlink="http://www.w3.org/1999/xlink" width="380" zoomAndPan="magnify" viewBox="0 0 285 203.999996" height="272" preserveAspectRatio="xMidYMid meet" version="1.0"><defs><g/><clipPath id="7111378ade"><path d="M 3 7 L 210 7 L 210 203.878906 L 3 203.878906 Z M 3 7 " clip-rule="nonzero"/></clipPath><clipPath id="1aa5920d76"><path d="M 0.113281 94 L 11 94 L 11 106 L 0.113281 106 Z M 0.113281 94 " clip-rule="nonzero"/></clipPath><clipPath id="08218d7545"><path d="M 206 73 L 216.863281 73 L 216.863281 86 L 206 86 Z M 206 73 " clip-rule="nonzero"/></clipPath></defs><g clip-path="url(#7111378ade)"><path fill="#41c4ab" d="M 3.355469 59.722656 C 3.519531 57.167969 3.882812 54.640625 4.445312 52.144531 C 5.007812 49.648438 5.765625 47.210938 6.71875 44.832031 C 7.667969 42.453125 8.800781 40.167969 10.117188 37.972656 C 11.429688 35.773438 12.910156 33.695312 14.558594 31.734375 C 22.105469 22.78125 33.214844 17.542969 44.429688 14.671875 C 57.710938 11.289062 71.492188 11.140625 85.074219 10.144531 C 99.171875 9.160156 113.257812 7.335938 127.414062 7.484375 C 141.574219 7.636719 155.988281 9.660156 170.191406 11.199219 C 176.863281 11.925781 183.640625 12.378906 190.25 13.523438 C 195.578125 14.445312 200.816406 16.304688 204.46875 20.484375 C 210.945312 28.035156 210.507812 39.355469 207.941406 48.324219 C 204.484375 60.402344 197.375 71.621094 198.402344 84.648438 C 198.929688 91.445312 201.117188 97.964844 202.507812 104.609375 C 203.632812 109.960938 204.136719 115.371094 204.015625 120.839844 C 203.765625 129.867188 201.953125 138.566406 198.582031 146.941406 C 197.902344 150.730469 197.074219 154.492188 196.167969 158.21875 C 193.269531 169.316406 188.214844 180.1875 179.097656 187.523438 C 175.011719 190.910156 170.375 193.140625 165.179688 194.214844 C 158.613281 195.480469 151.925781 194.347656 145.347656 193.761719 C 141.984375 193.421875 138.617188 193.390625 135.25 193.667969 C 131.851562 194.058594 128.511719 194.726562 125.226562 195.679688 C 118.824219 197.445312 112.636719 199.890625 106.207031 201.503906 C 100.070312 203.273438 93.84375 203.707031 87.519531 202.804688 C 84.871094 202.292969 82.335938 201.429688 79.925781 200.21875 C 77.511719 199.003906 75.308594 197.484375 73.316406 195.664062 C 65.5 188.761719 60.261719 179.402344 51.867188 173.089844 C 43.734375 167.097656 34.074219 163.324219 26.917969 156.167969 C 25.078125 154.347656 23.53125 152.304688 22.285156 150.035156 C 21.035156 147.765625 20.136719 145.367188 19.582031 142.835938 C 18.359375 137.070312 18.796875 131.105469 19.25 125.277344 C 19.703125 119.238281 20.277344 112.988281 19.085938 106.964844 C 17.890625 100.941406 14.722656 95.445312 11.644531 90.117188 C 8.691406 85.382812 6.390625 80.347656 4.746094 75.019531 C 3.4375 69.996094 2.976562 64.898438 3.355469 59.722656 Z M 3.355469 59.722656 " fill-opacity="1" fill-rule="nonzero"/></g><path fill="#fff1e6" d="M 209.765625 122.832031 C 207.773438 134.003906 202.3125 144.332031 195.441406 153.132812 C 191.996094 157.589844 188.109375 161.625 183.78125 165.230469 C 179.453125 168.839844 174.789062 171.9375 169.785156 174.527344 C 159.21875 179.929688 147.804688 183.070312 136.457031 186.105469 C 125.453125 189.035156 113.9375 192.144531 102.496094 190.636719 C 96.828125 189.871094 91.585938 187.957031 86.765625 184.882812 C 82.011719 181.9375 77.46875 178.691406 71.960938 177.410156 C 62.207031 175.128906 52.066406 177.621094 42.285156 175.550781 C 39.984375 175.113281 37.816406 174.316406 35.78125 173.15625 C 33.75 172 31.957031 170.542969 30.40625 168.789062 C 29.003906 167.054688 27.871094 165.160156 27 163.109375 C 26.132812 161.054688 25.5625 158.921875 25.289062 156.710938 C 23.777344 145.945312 27.28125 135.769531 30.132812 125.59375 C 32.09375 119.554688 33.03125 113.359375 32.941406 107.007812 C 32.59375 100.578125 29.921875 94.929688 26.902344 89.4375 C 16.335938 69.808594 16.035156 46.769531 23.886719 26.027344 C 26.769531 18.339844 31.734375 11.261719 38.78125 7.09375 C 40.953125 5.816406 43.234375 4.773438 45.621094 3.972656 C 48.011719 3.167969 50.457031 2.621094 52.960938 2.328125 C 55.460938 2.035156 57.96875 2.003906 60.476562 2.234375 C 62.988281 2.464844 65.445312 2.953125 67.855469 3.695312 C 73.347656 5.449219 78.296875 8.949219 84.125 9.554688 C 89.953125 10.160156 95.203125 8.226562 100.457031 6.308594 C 105.710938 4.390625 111.023438 2.113281 116.683594 1.417969 C 122.746094 0.8125 128.703125 1.367188 134.554688 3.078125 C 140.535156 4.828125 146.355469 7 152.019531 9.601562 L 169.859375 17.421875 C 175.234375 19.777344 180.710938 21.949219 185.949219 24.636719 C 190.121094 26.613281 193.871094 29.207031 197.195312 32.414062 C 198.835938 34.019531 200.148438 35.863281 201.136719 37.941406 C 202.121094 40.019531 202.71875 42.199219 202.929688 44.492188 C 203.335938 49.851562 201.421875 55.058594 199.773438 60.011719 C 197.996094 65.429688 196.636719 70.835938 197.78125 76.617188 C 198.855469 81.902344 201.40625 86.703125 203.820312 91.445312 C 206.492188 96.203125 208.464844 101.234375 209.738281 106.542969 C 210.757812 111.96875 210.769531 117.398438 209.765625 122.832031 Z M 209.765625 122.832031 " fill-opacity="1" fill-rule="nonzero"/><g clip-path="url(#1aa5920d76)"><path fill="#41c4ab" d="M 10.601562 100.140625 C 10.601562 100.523438 10.570312 100.902344 10.5 101.277344 C 10.433594 101.652344 10.335938 102.015625 10.203125 102.371094 C 10.070312 102.722656 9.910156 103.058594 9.71875 103.378906 C 9.523438 103.695312 9.308594 103.992188 9.0625 104.261719 C 8.820312 104.53125 8.554688 104.773438 8.269531 104.984375 C 7.980469 105.199219 7.679688 105.378906 7.359375 105.523438 C 7.039062 105.671875 6.710938 105.78125 6.375 105.855469 C 6.035156 105.929688 5.695312 105.96875 5.347656 105.96875 C 5.003906 105.96875 4.664062 105.929688 4.324219 105.855469 C 3.988281 105.78125 3.65625 105.671875 3.339844 105.523438 C 3.019531 105.378906 2.71875 105.199219 2.429688 104.984375 C 2.144531 104.773438 1.878906 104.53125 1.636719 104.261719 C 1.390625 103.992188 1.171875 103.695312 0.980469 103.378906 C 0.789062 103.058594 0.628906 102.722656 0.496094 102.371094 C 0.363281 102.015625 0.265625 101.652344 0.199219 101.277344 C 0.128906 100.902344 0.0976562 100.523438 0.0976562 100.140625 C 0.0976562 99.757812 0.128906 99.378906 0.199219 99.003906 C 0.265625 98.628906 0.363281 98.261719 0.496094 97.910156 C 0.628906 97.554688 0.789062 97.21875 0.980469 96.902344 C 1.171875 96.585938 1.390625 96.289062 1.636719 96.019531 C 1.878906 95.75 2.144531 95.507812 2.429688 95.292969 C 2.71875 95.082031 3.019531 94.902344 3.339844 94.757812 C 3.65625 94.609375 3.988281 94.5 4.324219 94.425781 C 4.664062 94.351562 5.003906 94.3125 5.347656 94.3125 C 5.695312 94.3125 6.035156 94.351562 6.375 94.425781 C 6.710938 94.5 7.039062 94.609375 7.359375 94.757812 C 7.679688 94.902344 7.980469 95.082031 8.269531 95.292969 C 8.554688 95.507812 8.820312 95.75 9.0625 96.019531 C 9.308594 96.289062 9.523438 96.585938 9.71875 96.902344 C 9.910156 97.21875 10.070312 97.554688 10.203125 97.910156 C 10.335938 98.261719 10.433594 98.628906 10.5 99.003906 C 10.570312 99.378906 10.601562 99.757812 10.601562 100.140625 Z M 10.601562 100.140625 " fill-opacity="1" fill-rule="nonzero"/></g><path fill="#41c4ab" d="M 15.703125 113.035156 C 15.703125 113.539062 15.617188 114.023438 15.441406 114.488281 C 15.269531 114.957031 15.023438 115.367188 14.699219 115.722656 C 14.378906 116.082031 14.007812 116.355469 13.589844 116.546875 C 13.167969 116.742188 12.730469 116.839844 12.277344 116.839844 C 11.824219 116.839844 11.386719 116.742188 10.964844 116.546875 C 10.546875 116.355469 10.175781 116.082031 9.855469 115.722656 C 9.535156 115.367188 9.285156 114.957031 9.113281 114.488281 C 8.9375 114.023438 8.851562 113.539062 8.851562 113.035156 C 8.851562 112.527344 8.9375 112.042969 9.113281 111.578125 C 9.285156 111.113281 9.535156 110.699219 9.855469 110.34375 C 10.175781 109.988281 10.546875 109.710938 10.964844 109.519531 C 11.386719 109.324219 11.824219 109.230469 12.277344 109.230469 C 12.730469 109.230469 13.167969 109.324219 13.589844 109.519531 C 14.007812 109.710938 14.378906 109.988281 14.699219 110.34375 C 15.023438 110.699219 15.269531 111.113281 15.441406 111.578125 C 15.617188 112.042969 15.703125 112.527344 15.703125 113.035156 Z M 15.703125 113.035156 " fill-opacity="1" fill-rule="nonzero"/><g clip-path="url(#08218d7545)"><path fill="#41c4ab" d="M 216.847656 79.488281 C 216.847656 79.871094 216.8125 80.25 216.746094 80.625 C 216.679688 81 216.578125 81.363281 216.445312 81.714844 C 216.316406 82.070312 216.152344 82.40625 215.960938 82.722656 C 215.769531 83.042969 215.550781 83.335938 215.308594 83.605469 C 215.0625 83.878906 214.800781 84.121094 214.511719 84.332031 C 214.226562 84.542969 213.921875 84.722656 213.605469 84.871094 C 213.285156 85.015625 212.957031 85.128906 212.617188 85.203125 C 212.28125 85.277344 211.9375 85.3125 211.59375 85.3125 C 211.25 85.3125 210.90625 85.277344 210.570312 85.203125 C 210.230469 85.128906 209.902344 85.015625 209.582031 84.871094 C 209.265625 84.722656 208.960938 84.542969 208.675781 84.332031 C 208.390625 84.121094 208.125 83.878906 207.878906 83.605469 C 207.636719 83.335938 207.417969 83.042969 207.226562 82.722656 C 207.035156 82.40625 206.871094 82.070312 206.742188 81.714844 C 206.609375 81.363281 206.507812 81 206.441406 80.625 C 206.375 80.25 206.339844 79.871094 206.339844 79.488281 C 206.339844 79.105469 206.375 78.726562 206.441406 78.351562 C 206.507812 77.972656 206.609375 77.609375 206.742188 77.257812 C 206.871094 76.902344 207.035156 76.566406 207.226562 76.25 C 207.417969 75.929688 207.636719 75.636719 207.878906 75.367188 C 208.125 75.09375 208.390625 74.855469 208.675781 74.640625 C 208.960938 74.429688 209.265625 74.25 209.582031 74.101562 C 209.902344 73.957031 210.230469 73.84375 210.570312 73.769531 C 210.90625 73.695312 211.25 73.660156 211.59375 73.660156 C 211.9375 73.660156 212.28125 73.695312 212.617188 73.769531 C 212.957031 73.84375 213.285156 73.957031 213.605469 74.101562 C 213.921875 74.25 214.226562 74.429688 214.511719 74.640625 C 214.800781 74.855469 215.0625 75.09375 215.308594 75.367188 C 215.550781 75.636719 215.769531 75.929688 215.960938 76.25 C 216.152344 76.566406 216.316406 76.902344 216.445312 77.257812 C 216.578125 77.609375 216.679688 77.972656 216.746094 78.351562 C 216.8125 78.726562 216.847656 79.105469 216.847656 79.488281 Z M 216.847656 79.488281 " fill-opacity="1" fill-rule="nonzero"/></g><path fill="#41c4ab" d="M 19.644531 20.09375 C 19.644531 20.597656 19.554688 21.082031 19.382812 21.546875 C 19.207031 22.015625 18.960938 22.425781 18.640625 22.78125 C 18.320312 23.140625 17.949219 23.414062 17.527344 23.609375 C 17.109375 23.800781 16.671875 23.898438 16.21875 23.898438 C 15.761719 23.898438 15.324219 23.800781 14.90625 23.609375 C 14.484375 23.414062 14.117188 23.140625 13.792969 22.78125 C 13.472656 22.425781 13.226562 22.015625 13.050781 21.546875 C 12.878906 21.082031 12.789062 20.597656 12.789062 20.09375 C 12.789062 19.589844 12.878906 19.101562 13.050781 18.636719 C 13.226562 18.171875 13.472656 17.757812 13.792969 17.402344 C 14.117188 17.046875 14.484375 16.769531 14.90625 16.578125 C 15.324219 16.382812 15.761719 16.289062 16.21875 16.289062 C 16.671875 16.289062 17.109375 16.382812 17.527344 16.578125 C 17.949219 16.769531 18.320312 17.046875 18.640625 17.402344 C 18.960938 17.757812 19.207031 18.171875 19.382812 18.636719 C 19.554688 19.101562 19.644531 19.589844 19.644531 20.09375 Z M 19.644531 20.09375 " fill-opacity="1" fill-rule="nonzero"/><g fill="#000000" fill-opacity="1"><g transform="translate(70.240261, 48.53542)"><g><path d="M 7.765625 0.28125 C 6.796875 0.28125 5.910156 0.09375 5.109375 -0.28125 C 4.304688 -0.65625 3.613281 -1.1875 3.03125 -1.875 C 2.457031 -2.570312 2.007812 -3.414062 1.6875 -4.40625 C 1.375 -5.394531 1.21875 -6.503906 1.21875 -7.734375 C 1.21875 -8.960938 1.375 -10.0625 1.6875 -11.03125 C 2.007812 -12.007812 2.457031 -12.835938 3.03125 -13.515625 C 3.613281 -14.203125 4.304688 -14.722656 5.109375 -15.078125 C 5.910156 -15.429688 6.796875 -15.609375 7.765625 -15.609375 C 8.722656 -15.609375 9.601562 -15.425781 10.40625 -15.0625 C 11.21875 -14.695312 11.914062 -14.175781 12.5 -13.5 C 13.082031 -12.820312 13.53125 -11.992188 13.84375 -11.015625 C 14.164062 -10.046875 14.328125 -8.953125 14.328125 -7.734375 C 14.328125 -6.503906 14.164062 -5.394531 13.84375 -4.40625 C 13.53125 -3.414062 13.082031 -2.570312 12.5 -1.875 C 11.914062 -1.1875 11.21875 -0.65625 10.40625 -0.28125 C 9.601562 0.09375 8.722656 0.28125 7.765625 0.28125 Z M 7.765625 -1.421875 C 8.441406 -1.421875 9.054688 -1.566406 9.609375 -1.859375 C 10.171875 -2.160156 10.648438 -2.585938 11.046875 -3.140625 C 11.441406 -3.691406 11.75 -4.351562 11.96875 -5.125 C 12.1875 -5.894531 12.296875 -6.765625 12.296875 -7.734375 C 12.296875 -8.679688 12.1875 -9.535156 11.96875 -10.296875 C 11.75 -11.066406 11.441406 -11.71875 11.046875 -12.25 C 10.648438 -12.78125 10.171875 -13.1875 9.609375 -13.46875 C 9.054688 -13.757812 8.441406 -13.90625 7.765625 -13.90625 C 7.078125 -13.90625 6.457031 -13.757812 5.90625 -13.46875 C 5.351562 -13.1875 4.875 -12.78125 4.46875 -12.25 C 4.070312 -11.71875 3.765625 -11.066406 3.546875 -10.296875 C 3.328125 -9.535156 3.21875 -8.679688 3.21875 -7.734375 C 3.21875 -6.765625 3.328125 -5.894531 3.546875 -5.125 C 3.765625 -4.351562 4.070312 -3.691406 4.46875 -3.140625 C 4.875 -2.585938 5.351562 -2.160156 5.90625 -1.859375 C 6.457031 -1.566406 7.078125 -1.421875 7.765625 -1.421875 Z M 7.765625 -1.421875 "/></g></g></g><g fill="#000000" fill-opacity="1"><g transform="translate(85.759201, 48.53542)"><g><path d="M 2.109375 0 L 2.109375 -15.328125 L 6.890625 -15.328125 C 7.671875 -15.328125 8.390625 -15.253906 9.046875 -15.109375 C 9.710938 -14.960938 10.285156 -14.71875 10.765625 -14.375 C 11.242188 -14.03125 11.613281 -13.582031 11.875 -13.03125 C 12.132812 -12.488281 12.265625 -11.820312 12.265625 -11.03125 C 12.265625 -9.832031 11.953125 -8.875 11.328125 -8.15625 C 10.710938 -7.4375 9.875 -6.945312 8.8125 -6.6875 L 12.71875 0 L 10.515625 0 L 6.828125 -6.46875 L 4.046875 -6.46875 L 4.046875 0 Z M 4.046875 -8.0625 L 6.609375 -8.0625 C 7.816406 -8.0625 8.738281 -8.304688 9.375 -8.796875 C 10.007812 -9.285156 10.328125 -10.03125 10.328125 -11.03125 C 10.328125 -12.039062 10.007812 -12.75 9.375 -13.15625 C 8.738281 -13.5625 7.816406 -13.765625 6.609375 -13.765625 L 4.046875 -13.765625 Z M 4.046875 -8.0625 "/></g></g></g><g fill="#000000" fill-opacity="1"><g transform="translate(41.605872, 118.501656)"><g><path d="M 5.734375 0 L 5.734375 -14.859375 L 0.703125 -14.859375 L 0.703125 -16.640625 L 12.875 -16.640625 L 12.875 -14.859375 L 7.859375 -14.859375 L 7.859375 0 Z M 5.734375 0 "/></g></g></g><g fill="#000000" fill-opacity="1"><g transform="translate(55.198512, 118.501656)"><g><path d="M 2.078125 0 L 2.078125 -12.328125 L 4.15625 -12.328125 L 4.15625 0 Z M 3.140625 -14.859375 C 2.734375 -14.859375 2.390625 -14.984375 2.109375 -15.234375 C 1.835938 -15.492188 1.703125 -15.816406 1.703125 -16.203125 C 1.703125 -16.609375 1.835938 -16.929688 2.109375 -17.171875 C 2.390625 -17.421875 2.734375 -17.546875 3.140625 -17.546875 C 3.546875 -17.546875 3.890625 -17.421875 4.171875 -17.171875 C 4.453125 -16.929688 4.59375 -16.609375 4.59375 -16.203125 C 4.59375 -15.816406 4.453125 -15.492188 4.171875 -15.234375 C 3.890625 -14.984375 3.546875 -14.859375 3.140625 -14.859375 Z M 3.140625 -14.859375 "/></g></g></g><g fill="#000000" fill-opacity="1"><g transform="translate(61.436926, 118.501656)"><g><path d="M 6.953125 0.296875 C 6.140625 0.296875 5.375 0.15625 4.65625 -0.125 C 3.945312 -0.414062 3.332031 -0.832031 2.8125 -1.375 C 2.300781 -1.925781 1.898438 -2.601562 1.609375 -3.40625 C 1.316406 -4.207031 1.171875 -5.117188 1.171875 -6.140625 C 1.171875 -7.171875 1.328125 -8.085938 1.640625 -8.890625 C 1.960938 -9.691406 2.394531 -10.367188 2.9375 -10.921875 C 3.476562 -11.484375 4.109375 -11.90625 4.828125 -12.1875 C 5.546875 -12.476562 6.300781 -12.625 7.09375 -12.625 C 7.90625 -12.625 8.597656 -12.476562 9.171875 -12.1875 C 9.753906 -11.90625 10.265625 -11.570312 10.703125 -11.1875 L 9.640625 -9.8125 C 9.285156 -10.132812 8.90625 -10.394531 8.5 -10.59375 C 8.101562 -10.800781 7.660156 -10.90625 7.171875 -10.90625 C 6.617188 -10.90625 6.101562 -10.789062 5.625 -10.5625 C 5.15625 -10.332031 4.75 -10.003906 4.40625 -9.578125 C 4.070312 -9.160156 3.804688 -8.660156 3.609375 -8.078125 C 3.421875 -7.492188 3.328125 -6.847656 3.328125 -6.140625 C 3.328125 -5.429688 3.414062 -4.785156 3.59375 -4.203125 C 3.78125 -3.628906 4.039062 -3.132812 4.375 -2.71875 C 4.707031 -2.3125 5.109375 -1.992188 5.578125 -1.765625 C 6.054688 -1.535156 6.570312 -1.421875 7.125 -1.421875 C 7.695312 -1.421875 8.222656 -1.539062 8.703125 -1.78125 C 9.191406 -2.03125 9.628906 -2.320312 10.015625 -2.65625 L 10.9375 -1.265625 C 10.375 -0.773438 9.753906 -0.390625 9.078125 -0.109375 C 8.398438 0.160156 7.691406 0.296875 6.953125 0.296875 Z M 6.953125 0.296875 "/></g></g></g><g fill="#000000" fill-opacity="1"><g transform="translate(73.000814, 118.501656)"><g><path d="M 2.078125 0 L 2.078125 -18.0625 L 4.140625 -18.0625 L 4.140625 -5.828125 L 4.203125 -5.828125 L 9.453125 -12.328125 L 11.765625 -12.328125 L 7.640625 -7.375 L 12.328125 0 L 10.046875 0 L 6.4375 -5.9375 L 4.140625 -3.25 L 4.140625 0 Z M 2.078125 0 "/></g></g></g><g fill="#000000" fill-opacity="1"><g transform="translate(85.553711, 118.501656)"><g><path d="M 7.078125 0.296875 C 6.242188 0.296875 5.46875 0.148438 4.75 -0.140625 C 4.03125 -0.429688 3.40625 -0.851562 2.875 -1.40625 C 2.34375 -1.957031 1.925781 -2.628906 1.625 -3.421875 C 1.320312 -4.210938 1.171875 -5.117188 1.171875 -6.140625 C 1.171875 -7.148438 1.328125 -8.054688 1.640625 -8.859375 C 1.953125 -9.660156 2.363281 -10.335938 2.875 -10.890625 C 3.394531 -11.453125 3.984375 -11.878906 4.640625 -12.171875 C 5.296875 -12.472656 5.976562 -12.625 6.6875 -12.625 C 7.46875 -12.625 8.164062 -12.488281 8.78125 -12.21875 C 9.40625 -11.945312 9.921875 -11.554688 10.328125 -11.046875 C 10.742188 -10.546875 11.0625 -9.941406 11.28125 -9.234375 C 11.5 -8.523438 11.609375 -7.726562 11.609375 -6.84375 C 11.609375 -6.625 11.601562 -6.410156 11.59375 -6.203125 C 11.59375 -5.992188 11.570312 -5.8125 11.53125 -5.65625 L 3.21875 -5.65625 C 3.300781 -4.332031 3.707031 -3.285156 4.4375 -2.515625 C 5.175781 -1.753906 6.140625 -1.375 7.328125 -1.375 C 7.921875 -1.375 8.46875 -1.460938 8.96875 -1.640625 C 9.46875 -1.816406 9.941406 -2.046875 10.390625 -2.328125 L 11.125 -0.96875 C 10.59375 -0.625 9.992188 -0.328125 9.328125 -0.078125 C 8.671875 0.171875 7.921875 0.296875 7.078125 0.296875 Z M 3.1875 -7.15625 L 9.78125 -7.15625 C 9.78125 -8.40625 9.515625 -9.351562 8.984375 -10 C 8.453125 -10.65625 7.707031 -10.984375 6.75 -10.984375 C 6.3125 -10.984375 5.890625 -10.894531 5.484375 -10.71875 C 5.085938 -10.550781 4.726562 -10.300781 4.40625 -9.96875 C 4.09375 -9.644531 3.828125 -9.242188 3.609375 -8.765625 C 3.398438 -8.296875 3.257812 -7.757812 3.1875 -7.15625 Z M 3.1875 -7.15625 "/></g></g></g><g fill="#000000" fill-opacity="1"><g transform="translate(98.131969, 118.501656)"><g><path d="M 5.953125 0.296875 C 5.296875 0.296875 4.742188 0.195312 4.296875 0 C 3.847656 -0.195312 3.484375 -0.472656 3.203125 -0.828125 C 2.929688 -1.191406 2.734375 -1.625 2.609375 -2.125 C 2.492188 -2.632812 2.4375 -3.191406 2.4375 -3.796875 L 2.4375 -10.625 L 0.609375 -10.625 L 0.609375 -12.203125 L 2.53125 -12.328125 L 2.796875 -15.78125 L 4.546875 -15.78125 L 4.546875 -12.328125 L 7.859375 -12.328125 L 7.859375 -10.625 L 4.546875 -10.625 L 4.546875 -3.78125 C 4.546875 -3.019531 4.679688 -2.429688 4.953125 -2.015625 C 5.234375 -1.597656 5.726562 -1.390625 6.4375 -1.390625 C 6.65625 -1.390625 6.890625 -1.421875 7.140625 -1.484375 C 7.398438 -1.554688 7.632812 -1.632812 7.84375 -1.71875 L 8.234375 -0.15625 C 7.898438 -0.03125 7.535156 0.0703125 7.140625 0.15625 C 6.742188 0.25 6.347656 0.296875 5.953125 0.296875 Z M 5.953125 0.296875 "/></g></g></g><g fill="#000000" fill-opacity="1"><g transform="translate(106.703445, 118.501656)"><g/></g></g><g fill="#000000" fill-opacity="1"><g transform="translate(111.775328, 118.501656)"><g><path d="M 2.28125 0 L 2.28125 -16.640625 L 4.46875 -16.640625 L 10.46875 -6.1875 L 12.28125 -2.734375 L 12.375 -2.734375 C 12.320312 -3.578125 12.265625 -4.453125 12.203125 -5.359375 C 12.148438 -6.265625 12.125 -7.15625 12.125 -8.03125 L 12.125 -16.640625 L 14.125 -16.640625 L 14.125 0 L 11.9375 0 L 5.90625 -10.46875 L 4.109375 -13.890625 L 4 -13.890625 C 4.070312 -13.046875 4.132812 -12.1875 4.1875 -11.3125 C 4.25 -10.445312 4.28125 -9.578125 4.28125 -8.703125 L 4.28125 0 Z M 2.28125 0 "/></g></g></g><g fill="#000000" fill-opacity="1"><g transform="translate(128.182859, 118.501656)"><g><path d="M 5.6875 0.296875 C 4.363281 0.296875 3.398438 -0.101562 2.796875 -0.90625 C 2.203125 -1.71875 1.90625 -2.921875 1.90625 -4.515625 L 1.90625 -12.328125 L 4 -12.328125 L 4 -4.796875 C 4 -3.628906 4.179688 -2.785156 4.546875 -2.265625 C 4.910156 -1.753906 5.5 -1.5 6.3125 -1.5 C 6.957031 -1.5 7.523438 -1.660156 8.015625 -1.984375 C 8.503906 -2.316406 9.046875 -2.847656 9.640625 -3.578125 L 9.640625 -12.328125 L 11.71875 -12.328125 L 11.71875 0 L 9.984375 0 L 9.8125 -1.921875 L 9.734375 -1.921875 C 9.160156 -1.242188 8.554688 -0.703125 7.921875 -0.296875 C 7.285156 0.0976562 6.539062 0.296875 5.6875 0.296875 Z M 5.6875 0.296875 "/></g></g></g><g fill="#000000" fill-opacity="1"><g transform="translate(141.978367, 118.501656)"><g><path d="M 2.078125 0 L 2.078125 -12.328125 L 3.796875 -12.328125 L 3.984375 -10.546875 L 4.0625 -10.546875 C 4.601562 -11.140625 5.1875 -11.632812 5.8125 -12.03125 C 6.445312 -12.425781 7.140625 -12.625 7.890625 -12.625 C 8.835938 -12.625 9.578125 -12.414062 10.109375 -12 C 10.640625 -11.59375 11.03125 -11.015625 11.28125 -10.265625 C 11.925781 -10.972656 12.570312 -11.539062 13.21875 -11.96875 C 13.875 -12.40625 14.582031 -12.625 15.34375 -12.625 C 16.613281 -12.625 17.554688 -12.21875 18.171875 -11.40625 C 18.785156 -10.59375 19.09375 -9.394531 19.09375 -7.8125 L 19.09375 0 L 17.015625 0 L 17.015625 -7.53125 C 17.015625 -8.695312 16.828125 -9.535156 16.453125 -10.046875 C 16.085938 -10.566406 15.515625 -10.828125 14.734375 -10.828125 C 13.804688 -10.828125 12.773438 -10.191406 11.640625 -8.921875 L 11.640625 0 L 9.5625 0 L 9.5625 -7.53125 C 9.5625 -8.695312 9.375 -9.535156 9 -10.046875 C 8.625 -10.566406 8.039062 -10.828125 7.25 -10.828125 C 6.320312 -10.828125 5.289062 -10.191406 4.15625 -8.921875 L 4.15625 0 Z M 2.078125 0 "/></g></g></g><g fill="#000000" fill-opacity="1"><g transform="translate(163.0013, 118.501656)"><g><path d="M 7.53125 0.296875 C 6.957031 0.296875 6.359375 0.160156 5.734375 -0.109375 C 5.117188 -0.390625 4.539062 -0.773438 4 -1.265625 L 3.9375 -1.265625 L 3.75 0 L 2.078125 0 L 2.078125 -18.0625 L 4.15625 -18.0625 L 4.15625 -13.140625 L 4.109375 -10.90625 C 4.660156 -11.394531 5.265625 -11.800781 5.921875 -12.125 C 6.585938 -12.457031 7.269531 -12.625 7.96875 -12.625 C 8.757812 -12.625 9.457031 -12.472656 10.0625 -12.171875 C 10.675781 -11.878906 11.1875 -11.457031 11.59375 -10.90625 C 12.007812 -10.363281 12.320312 -9.707031 12.53125 -8.9375 C 12.75 -8.164062 12.859375 -7.304688 12.859375 -6.359375 C 12.859375 -5.316406 12.710938 -4.378906 12.421875 -3.546875 C 12.140625 -2.722656 11.753906 -2.019531 11.265625 -1.4375 C 10.773438 -0.863281 10.207031 -0.429688 9.5625 -0.140625 C 8.914062 0.148438 8.238281 0.296875 7.53125 0.296875 Z M 7.171875 -1.453125 C 7.679688 -1.453125 8.148438 -1.5625 8.578125 -1.78125 C 9.015625 -2.007812 9.390625 -2.332031 9.703125 -2.75 C 10.015625 -3.164062 10.257812 -3.675781 10.4375 -4.28125 C 10.613281 -4.894531 10.703125 -5.582031 10.703125 -6.34375 C 10.703125 -7.019531 10.640625 -7.632812 10.515625 -8.1875 C 10.398438 -8.75 10.210938 -9.226562 9.953125 -9.625 C 9.691406 -10.019531 9.351562 -10.328125 8.9375 -10.546875 C 8.519531 -10.765625 8.023438 -10.875 7.453125 -10.875 C 6.453125 -10.875 5.351562 -10.316406 4.15625 -9.203125 L 4.15625 -2.734375 C 4.695312 -2.265625 5.234375 -1.929688 5.765625 -1.734375 C 6.296875 -1.546875 6.765625 -1.453125 7.171875 -1.453125 Z M 7.171875 -1.453125 "/></g></g></g><g fill="#000000" fill-opacity="1"><g transform="translate(177.025038, 118.501656)"><g><path d="M 7.078125 0.296875 C 6.242188 0.296875 5.46875 0.148438 4.75 -0.140625 C 4.03125 -0.429688 3.40625 -0.851562 2.875 -1.40625 C 2.34375 -1.957031 1.925781 -2.628906 1.625 -3.421875 C 1.320312 -4.210938 1.171875 -5.117188 1.171875 -6.140625 C 1.171875 -7.148438 1.328125 -8.054688 1.640625 -8.859375 C 1.953125 -9.660156 2.363281 -10.335938 2.875 -10.890625 C 3.394531 -11.453125 3.984375 -11.878906 4.640625 -12.171875 C 5.296875 -12.472656 5.976562 -12.625 6.6875 -12.625 C 7.46875 -12.625 8.164062 -12.488281 8.78125 -12.21875 C 9.40625 -11.945312 9.921875 -11.554688 10.328125 -11.046875 C 10.742188 -10.546875 11.0625 -9.941406 11.28125 -9.234375 C 11.5 -8.523438 11.609375 -7.726562 11.609375 -6.84375 C 11.609375 -6.625 11.601562 -6.410156 11.59375 -6.203125 C 11.59375 -5.992188 11.570312 -5.8125 11.53125 -5.65625 L 3.21875 -5.65625 C 3.300781 -4.332031 3.707031 -3.285156 4.4375 -2.515625 C 5.175781 -1.753906 6.140625 -1.375 7.328125 -1.375 C 7.921875 -1.375 8.46875 -1.460938 8.96875 -1.640625 C 9.46875 -1.816406 9.941406 -2.046875 10.390625 -2.328125 L 11.125 -0.96875 C 10.59375 -0.625 9.992188 -0.328125 9.328125 -0.078125 C 8.671875 0.171875 7.921875 0.296875 7.078125 0.296875 Z M 3.1875 -7.15625 L 9.78125 -7.15625 C 9.78125 -8.40625 9.515625 -9.351562 8.984375 -10 C 8.453125 -10.65625 7.707031 -10.984375 6.75 -10.984375 C 6.3125 -10.984375 5.890625 -10.894531 5.484375 -10.71875 C 5.085938 -10.550781 4.726562 -10.300781 4.40625 -9.96875 C 4.09375 -9.644531 3.828125 -9.242188 3.609375 -8.765625 C 3.398438 -8.296875 3.257812 -7.757812 3.1875 -7.15625 Z M 3.1875 -7.15625 "/></g></g></g><g fill="#000000" fill-opacity="1"><g transform="translate(189.603296, 118.501656)"><g><path d="M 2.078125 0 L 2.078125 -12.328125 L 3.796875 -12.328125 L 3.984375 -10.09375 L 4.0625 -10.09375 C 4.476562 -10.875 4.984375 -11.488281 5.578125 -11.9375 C 6.179688 -12.394531 6.84375 -12.625 7.5625 -12.625 C 8.050781 -12.625 8.488281 -12.539062 8.875 -12.375 L 8.46875 -10.546875 C 8.269531 -10.617188 8.082031 -10.671875 7.90625 -10.703125 C 7.738281 -10.734375 7.53125 -10.75 7.28125 -10.75 C 6.75 -10.75 6.203125 -10.535156 5.640625 -10.109375 C 5.078125 -9.691406 4.582031 -8.957031 4.15625 -7.90625 L 4.15625 0 Z M 2.078125 0 "/></g></g></g></svg>