<svg xmlns="http://www.w3.org/2000/svg" xmlns:xlink="http://www.w3.org/1999/xlink" width="164" zoomAndPan="magnify" viewBox="0 0 123 60" height="80" preserveAspectRatio="xMidYMid meet" version="1.0"><defs><g/><clipPath id="54a25f1b1a"><path d="M 0.542969 2.875 L 3.453125 2.875 L 3.453125 29.980469 L 0.542969 29.980469 Z M 0.542969 2.875 " clip-rule="nonzero"/></clipPath><clipPath id="0daa84d6ba"><path d="M 1.996094 2.875 C 2.800781 2.875 3.453125 3.527344 3.453125 4.332031 L 3.453125 28.527344 C 3.453125 29.328125 2.800781 29.980469 1.996094 29.980469 C 1.195312 29.980469 0.542969 29.328125 0.542969 28.527344 L 0.542969 4.332031 C 0.542969 3.527344 1.195312 2.875 1.996094 2.875 Z M 1.996094 2.875 " clip-rule="nonzero"/></clipPath></defs><g clip-path="url(#54a25f1b1a)"><g clip-path="url(#0daa84d6ba)"><path fill="#1a2529" d="M 0.542969 2.875 L 3.453125 2.875 L 3.453125 29.980469 L 0.542969 29.980469 Z M 0.542969 2.875 " fill-opacity="1" fill-rule="nonzero"/></g></g><g fill="#0cc0df" fill-opacity="1"><g transform="translate(13.823827, 22.650525)"><g><path d="M 5.828125 0.09375 C 5.453125 0.09375 5.148438 -0.015625 4.921875 -0.234375 C 4.703125 -0.453125 4.59375 -0.75 4.59375 -1.125 L 4.59375 -11.375 L 1.140625 -11.375 C 0.378906 -11.375 0 -11.710938 0 -12.390625 C 0 -13.054688 0.378906 -13.390625 1.140625 -13.390625 L 10.5 -13.390625 C 11.257812 -13.390625 11.640625 -13.054688 11.640625 -12.390625 C 11.640625 -11.710938 11.257812 -11.375 10.5 -11.375 L 7.046875 -11.375 L 7.046875 -1.125 C 7.046875 -0.75 6.9375 -0.453125 6.71875 -0.234375 C 6.5 -0.015625 6.203125 0.09375 5.828125 0.09375 Z M 5.828125 0.09375 "/></g></g></g><g fill="#0cc0df" fill-opacity="1"><g transform="translate(25.47005, 22.650525)"><g><path d="M 5.265625 -9.515625 C 6.554688 -9.515625 7.515625 -9.191406 8.140625 -8.546875 C 8.765625 -7.910156 9.078125 -6.941406 9.078125 -5.640625 L 9.078125 -1 C 9.078125 -0.664062 8.972656 -0.398438 8.765625 -0.203125 C 8.566406 -0.00390625 8.289062 0.09375 7.9375 0.09375 C 7.613281 0.09375 7.347656 -0.00390625 7.140625 -0.203125 C 6.929688 -0.410156 6.828125 -0.675781 6.828125 -1 L 6.828125 -1.421875 C 6.609375 -0.929688 6.265625 -0.546875 5.796875 -0.265625 C 5.335938 0.015625 4.804688 0.15625 4.203125 0.15625 C 3.578125 0.15625 3.007812 0.03125 2.5 -0.21875 C 2 -0.476562 1.601562 -0.828125 1.3125 -1.265625 C 1.019531 -1.710938 0.875 -2.207031 0.875 -2.75 C 0.875 -3.4375 1.046875 -3.972656 1.390625 -4.359375 C 1.742188 -4.753906 2.3125 -5.039062 3.09375 -5.21875 C 3.882812 -5.394531 4.96875 -5.484375 6.34375 -5.484375 L 6.828125 -5.484375 L 6.828125 -5.921875 C 6.828125 -6.546875 6.691406 -7 6.421875 -7.28125 C 6.148438 -7.570312 5.71875 -7.71875 5.125 -7.71875 C 4.757812 -7.71875 4.382812 -7.660156 4 -7.546875 C 3.625 -7.441406 3.175781 -7.289062 2.65625 -7.09375 C 2.332031 -6.925781 2.09375 -6.84375 1.9375 -6.84375 C 1.707031 -6.84375 1.519531 -6.921875 1.375 -7.078125 C 1.226562 -7.242188 1.15625 -7.460938 1.15625 -7.734375 C 1.15625 -7.953125 1.207031 -8.140625 1.3125 -8.296875 C 1.425781 -8.453125 1.609375 -8.597656 1.859375 -8.734375 C 2.304688 -8.972656 2.835938 -9.160156 3.453125 -9.296875 C 4.066406 -9.441406 4.671875 -9.515625 5.265625 -9.515625 Z M 4.671875 -1.5625 C 5.304688 -1.5625 5.820312 -1.769531 6.21875 -2.1875 C 6.625 -2.613281 6.828125 -3.164062 6.828125 -3.84375 L 6.828125 -4.234375 L 6.484375 -4.234375 C 5.628906 -4.234375 4.96875 -4.195312 4.5 -4.125 C 4.03125 -4.050781 3.691406 -3.914062 3.484375 -3.71875 C 3.285156 -3.53125 3.1875 -3.269531 3.1875 -2.9375 C 3.1875 -2.539062 3.328125 -2.210938 3.609375 -1.953125 C 3.898438 -1.691406 4.253906 -1.5625 4.671875 -1.5625 Z M 4.671875 -1.5625 "/></g></g></g><g fill="#0cc0df" fill-opacity="1"><g transform="translate(35.729364, 22.650525)"><g><path d="M 2.40625 0.109375 C 2.070312 0.109375 1.789062 0.015625 1.5625 -0.171875 C 1.34375 -0.367188 1.234375 -0.65625 1.234375 -1.03125 L 1.234375 -8.359375 C 1.234375 -8.722656 1.34375 -9 1.5625 -9.1875 C 1.789062 -9.382812 2.070312 -9.484375 2.40625 -9.484375 C 2.75 -9.484375 3.035156 -9.382812 3.265625 -9.1875 C 3.492188 -9 3.609375 -8.722656 3.609375 -8.359375 L 3.609375 -1.03125 C 3.609375 -0.65625 3.492188 -0.367188 3.265625 -0.171875 C 3.035156 0.015625 2.75 0.109375 2.40625 0.109375 Z M 2.421875 -11.171875 C 1.984375 -11.171875 1.640625 -11.285156 1.390625 -11.515625 C 1.140625 -11.753906 1.015625 -12.0625 1.015625 -12.4375 C 1.015625 -12.820312 1.140625 -13.128906 1.390625 -13.359375 C 1.640625 -13.585938 1.984375 -13.703125 2.421875 -13.703125 C 2.835938 -13.703125 3.175781 -13.585938 3.4375 -13.359375 C 3.695312 -13.128906 3.828125 -12.820312 3.828125 -12.4375 C 3.828125 -12.0625 3.695312 -11.753906 3.4375 -11.515625 C 3.1875 -11.285156 2.847656 -11.171875 2.421875 -11.171875 Z M 2.421875 -11.171875 "/></g></g></g><g fill="#0cc0df" fill-opacity="1"><g transform="translate(40.555042, 22.650525)"><g><path d="M 5.921875 -11.625 C 5.335938 -11.59375 4.910156 -11.414062 4.640625 -11.09375 C 4.378906 -10.78125 4.25 -10.328125 4.25 -9.734375 L 4.25 -9.296875 L 5.875 -9.296875 C 6.582031 -9.296875 6.9375 -8.992188 6.9375 -8.390625 C 6.9375 -7.796875 6.582031 -7.5 5.875 -7.5 L 4.25 -7.5 L 4.25 -1.03125 C 4.25 -0.65625 4.140625 -0.375 3.921875 -0.1875 C 3.703125 0 3.421875 0.09375 3.078125 0.09375 C 2.734375 0.09375 2.445312 0 2.21875 -0.1875 C 1.988281 -0.375 1.875 -0.65625 1.875 -1.03125 L 1.875 -7.5 L 0.9375 -7.5 C 0.21875 -7.5 -0.140625 -7.796875 -0.140625 -8.390625 C -0.140625 -8.992188 0.21875 -9.296875 0.9375 -9.296875 L 1.875 -9.296875 L 1.875 -9.421875 C 1.875 -10.609375 2.1875 -11.539062 2.8125 -12.21875 C 3.445312 -12.90625 4.332031 -13.289062 5.46875 -13.375 L 5.96875 -13.40625 C 6.46875 -13.445312 6.820312 -13.394531 7.03125 -13.25 C 7.25 -13.101562 7.359375 -12.878906 7.359375 -12.578125 C 7.359375 -12.035156 7.046875 -11.734375 6.421875 -11.671875 Z M 5.921875 -11.625 "/></g></g></g><g fill="#0cc0df" fill-opacity="1"><g transform="translate(47.356592, 22.650525)"><g><path d="M 5.265625 -9.515625 C 6.554688 -9.515625 7.515625 -9.191406 8.140625 -8.546875 C 8.765625 -7.910156 9.078125 -6.941406 9.078125 -5.640625 L 9.078125 -1 C 9.078125 -0.664062 8.972656 -0.398438 8.765625 -0.203125 C 8.566406 -0.00390625 8.289062 0.09375 7.9375 0.09375 C 7.613281 0.09375 7.347656 -0.00390625 7.140625 -0.203125 C 6.929688 -0.410156 6.828125 -0.675781 6.828125 -1 L 6.828125 -1.421875 C 6.609375 -0.929688 6.265625 -0.546875 5.796875 -0.265625 C 5.335938 0.015625 4.804688 0.15625 4.203125 0.15625 C 3.578125 0.15625 3.007812 0.03125 2.5 -0.21875 C 2 -0.476562 1.601562 -0.828125 1.3125 -1.265625 C 1.019531 -1.710938 0.875 -2.207031 0.875 -2.75 C 0.875 -3.4375 1.046875 -3.972656 1.390625 -4.359375 C 1.742188 -4.753906 2.3125 -5.039062 3.09375 -5.21875 C 3.882812 -5.394531 4.96875 -5.484375 6.34375 -5.484375 L 6.828125 -5.484375 L 6.828125 -5.921875 C 6.828125 -6.546875 6.691406 -7 6.421875 -7.28125 C 6.148438 -7.570312 5.71875 -7.71875 5.125 -7.71875 C 4.757812 -7.71875 4.382812 -7.660156 4 -7.546875 C 3.625 -7.441406 3.175781 -7.289062 2.65625 -7.09375 C 2.332031 -6.925781 2.09375 -6.84375 1.9375 -6.84375 C 1.707031 -6.84375 1.519531 -6.921875 1.375 -7.078125 C 1.226562 -7.242188 1.15625 -7.460938 1.15625 -7.734375 C 1.15625 -7.953125 1.207031 -8.140625 1.3125 -8.296875 C 1.425781 -8.453125 1.609375 -8.597656 1.859375 -8.734375 C 2.304688 -8.972656 2.835938 -9.160156 3.453125 -9.296875 C 4.066406 -9.441406 4.671875 -9.515625 5.265625 -9.515625 Z M 4.671875 -1.5625 C 5.304688 -1.5625 5.820312 -1.769531 6.21875 -2.1875 C 6.625 -2.613281 6.828125 -3.164062 6.828125 -3.84375 L 6.828125 -4.234375 L 6.484375 -4.234375 C 5.628906 -4.234375 4.96875 -4.195312 4.5 -4.125 C 4.03125 -4.050781 3.691406 -3.914062 3.484375 -3.71875 C 3.285156 -3.53125 3.1875 -3.269531 3.1875 -2.9375 C 3.1875 -2.539062 3.328125 -2.210938 3.609375 -1.953125 C 3.898438 -1.691406 4.253906 -1.5625 4.671875 -1.5625 Z M 4.671875 -1.5625 "/></g></g></g><g fill="#0cc0df" fill-opacity="1"><g transform="translate(13.823827, 48.928668)"><g><path d="M 11.90625 -13.484375 C 12.28125 -13.484375 12.570312 -13.375 12.78125 -13.15625 C 13 -12.9375 13.109375 -12.644531 13.109375 -12.28125 L 13.109375 -1.125 C 13.109375 -0.75 12.992188 -0.445312 12.765625 -0.21875 C 12.546875 0 12.257812 0.109375 11.90625 0.109375 C 11.539062 0.109375 11.25 0 11.03125 -0.21875 C 10.820312 -0.445312 10.71875 -0.75 10.71875 -1.125 L 10.71875 -5.8125 L 3.859375 -5.8125 L 3.859375 -1.125 C 3.859375 -0.75 3.742188 -0.445312 3.515625 -0.21875 C 3.296875 0 3.003906 0.109375 2.640625 0.109375 C 2.285156 0.109375 1.992188 0 1.765625 -0.21875 C 1.546875 -0.445312 1.4375 -0.75 1.4375 -1.125 L 1.4375 -12.28125 C 1.4375 -12.644531 1.546875 -12.9375 1.765625 -13.15625 C 1.984375 -13.375 2.273438 -13.484375 2.640625 -13.484375 C 3.003906 -13.484375 3.296875 -13.375 3.515625 -13.15625 C 3.742188 -12.9375 3.859375 -12.644531 3.859375 -12.28125 L 3.859375 -7.796875 L 10.71875 -7.796875 L 10.71875 -12.28125 C 10.71875 -12.644531 10.820312 -12.9375 11.03125 -13.15625 C 11.25 -13.375 11.539062 -13.484375 11.90625 -13.484375 Z M 11.90625 -13.484375 "/></g></g></g><g fill="#0cc0df" fill-opacity="1"><g transform="translate(28.376858, 48.928668)"><g><path d="M 8.59375 -2.546875 C 8.800781 -2.546875 8.972656 -2.460938 9.109375 -2.296875 C 9.242188 -2.128906 9.3125 -1.910156 9.3125 -1.640625 C 9.3125 -1.242188 9.078125 -0.910156 8.609375 -0.640625 C 8.179688 -0.398438 7.691406 -0.207031 7.140625 -0.0625 C 6.597656 0.0820312 6.082031 0.15625 5.59375 0.15625 C 4.09375 0.15625 2.90625 -0.273438 2.03125 -1.140625 C 1.15625 -2.003906 0.71875 -3.179688 0.71875 -4.671875 C 0.71875 -5.617188 0.90625 -6.457031 1.28125 -7.1875 C 1.664062 -7.925781 2.203125 -8.5 2.890625 -8.90625 C 3.585938 -9.3125 4.375 -9.515625 5.25 -9.515625 C 6.082031 -9.515625 6.804688 -9.332031 7.421875 -8.96875 C 8.046875 -8.601562 8.53125 -8.082031 8.875 -7.40625 C 9.21875 -6.738281 9.390625 -5.945312 9.390625 -5.03125 C 9.390625 -4.488281 9.144531 -4.21875 8.65625 -4.21875 L 3.0625 -4.21875 C 3.132812 -3.34375 3.378906 -2.695312 3.796875 -2.28125 C 4.210938 -1.875 4.820312 -1.671875 5.625 -1.671875 C 6.03125 -1.671875 6.382812 -1.71875 6.6875 -1.8125 C 7 -1.914062 7.351562 -2.054688 7.75 -2.234375 C 8.132812 -2.441406 8.414062 -2.546875 8.59375 -2.546875 Z M 5.296875 -7.84375 C 4.648438 -7.84375 4.132812 -7.640625 3.75 -7.234375 C 3.363281 -6.828125 3.132812 -6.242188 3.0625 -5.484375 L 7.359375 -5.484375 C 7.328125 -6.265625 7.132812 -6.851562 6.78125 -7.25 C 6.425781 -7.644531 5.929688 -7.84375 5.296875 -7.84375 Z M 5.296875 -7.84375 "/></g></g></g><g fill="#0cc0df" fill-opacity="1"><g transform="translate(38.465187, 48.928668)"><g><path d="M 5.265625 -9.515625 C 6.554688 -9.515625 7.515625 -9.191406 8.140625 -8.546875 C 8.765625 -7.910156 9.078125 -6.941406 9.078125 -5.640625 L 9.078125 -1 C 9.078125 -0.664062 8.972656 -0.398438 8.765625 -0.203125 C 8.566406 -0.00390625 8.289062 0.09375 7.9375 0.09375 C 7.613281 0.09375 7.347656 -0.00390625 7.140625 -0.203125 C 6.929688 -0.410156 6.828125 -0.675781 6.828125 -1 L 6.828125 -1.421875 C 6.609375 -0.929688 6.265625 -0.546875 5.796875 -0.265625 C 5.335938 0.015625 4.804688 0.15625 4.203125 0.15625 C 3.578125 0.15625 3.007812 0.03125 2.5 -0.21875 C 2 -0.476562 1.601562 -0.828125 1.3125 -1.265625 C 1.019531 -1.710938 0.875 -2.207031 0.875 -2.75 C 0.875 -3.4375 1.046875 -3.972656 1.390625 -4.359375 C 1.742188 -4.753906 2.3125 -5.039062 3.09375 -5.21875 C 3.882812 -5.394531 4.96875 -5.484375 6.34375 -5.484375 L 6.828125 -5.484375 L 6.828125 -5.921875 C 6.828125 -6.546875 6.691406 -7 6.421875 -7.28125 C 6.148438 -7.570312 5.71875 -7.71875 5.125 -7.71875 C 4.757812 -7.71875 4.382812 -7.660156 4 -7.546875 C 3.625 -7.441406 3.175781 -7.289062 2.65625 -7.09375 C 2.332031 -6.925781 2.09375 -6.84375 1.9375 -6.84375 C 1.707031 -6.84375 1.519531 -6.921875 1.375 -7.078125 C 1.226562 -7.242188 1.15625 -7.460938 1.15625 -7.734375 C 1.15625 -7.953125 1.207031 -8.140625 1.3125 -8.296875 C 1.425781 -8.453125 1.609375 -8.597656 1.859375 -8.734375 C 2.304688 -8.972656 2.835938 -9.160156 3.453125 -9.296875 C 4.066406 -9.441406 4.671875 -9.515625 5.265625 -9.515625 Z M 4.671875 -1.5625 C 5.304688 -1.5625 5.820312 -1.769531 6.21875 -2.1875 C 6.625 -2.613281 6.828125 -3.164062 6.828125 -3.84375 L 6.828125 -4.234375 L 6.484375 -4.234375 C 5.628906 -4.234375 4.96875 -4.195312 4.5 -4.125 C 4.03125 -4.050781 3.691406 -3.914062 3.484375 -3.71875 C 3.285156 -3.53125 3.1875 -3.269531 3.1875 -2.9375 C 3.1875 -2.539062 3.328125 -2.210938 3.609375 -1.953125 C 3.898438 -1.691406 4.253906 -1.5625 4.671875 -1.5625 Z M 4.671875 -1.5625 "/></g></g></g><g fill="#0cc0df" fill-opacity="1"><g transform="translate(48.7245, 48.928668)"><g><path d="M 2.40625 0.109375 C 2.070312 0.109375 1.789062 0.015625 1.5625 -0.171875 C 1.34375 -0.367188 1.234375 -0.65625 1.234375 -1.03125 L 1.234375 -12.375 C 1.234375 -12.738281 1.34375 -13.015625 1.5625 -13.203125 C 1.789062 -13.390625 2.070312 -13.484375 2.40625 -13.484375 C 2.75 -13.484375 3.035156 -13.390625 3.265625 -13.203125 C 3.492188 -13.015625 3.609375 -12.738281 3.609375 -12.375 L 3.609375 -1.03125 C 3.609375 -0.65625 3.492188 -0.367188 3.265625 -0.171875 C 3.035156 0.015625 2.75 0.109375 2.40625 0.109375 Z M 2.40625 0.109375 "/></g></g></g><g fill="#0cc0df" fill-opacity="1"><g transform="translate(53.550179, 48.928668)"><g><path d="M 6.0625 -1.65625 C 6.695312 -1.613281 7.015625 -1.328125 7.015625 -0.796875 C 7.015625 -0.492188 6.890625 -0.257812 6.640625 -0.09375 C 6.390625 0.0625 6.039062 0.125 5.59375 0.09375 L 5.078125 0.0625 C 2.941406 -0.09375 1.875 -1.234375 1.875 -3.359375 L 1.875 -7.5 L 0.9375 -7.5 C 0.59375 -7.5 0.328125 -7.578125 0.140625 -7.734375 C -0.046875 -7.890625 -0.140625 -8.109375 -0.140625 -8.390625 C -0.140625 -8.679688 -0.046875 -8.90625 0.140625 -9.0625 C 0.328125 -9.21875 0.59375 -9.296875 0.9375 -9.296875 L 1.875 -9.296875 L 1.875 -11.03125 C 1.875 -11.375 1.984375 -11.644531 2.203125 -11.84375 C 2.421875 -12.050781 2.710938 -12.15625 3.078125 -12.15625 C 3.429688 -12.15625 3.710938 -12.050781 3.921875 -11.84375 C 4.140625 -11.644531 4.25 -11.375 4.25 -11.03125 L 4.25 -9.296875 L 5.875 -9.296875 C 6.21875 -9.296875 6.476562 -9.21875 6.65625 -9.0625 C 6.84375 -8.90625 6.9375 -8.679688 6.9375 -8.390625 C 6.9375 -8.109375 6.84375 -7.890625 6.65625 -7.734375 C 6.476562 -7.578125 6.21875 -7.5 5.875 -7.5 L 4.25 -7.5 L 4.25 -3.1875 C 4.25 -2.25 4.679688 -1.75 5.546875 -1.6875 Z M 6.0625 -1.65625 "/></g></g></g><g fill="#0cc0df" fill-opacity="1"><g transform="translate(60.56071, 48.928668)"><g><path d="M 6.671875 -9.515625 C 8.847656 -9.515625 9.9375 -8.242188 9.9375 -5.703125 L 9.9375 -1.03125 C 9.9375 -0.675781 9.832031 -0.394531 9.625 -0.1875 C 9.414062 0.0078125 9.128906 0.109375 8.765625 0.109375 C 8.390625 0.109375 8.09375 0.0078125 7.875 -0.1875 C 7.664062 -0.394531 7.5625 -0.675781 7.5625 -1.03125 L 7.5625 -5.703125 C 7.5625 -6.367188 7.425781 -6.859375 7.15625 -7.171875 C 6.882812 -7.484375 6.457031 -7.640625 5.875 -7.640625 C 5.1875 -7.640625 4.632812 -7.421875 4.21875 -6.984375 C 3.8125 -6.554688 3.609375 -5.984375 3.609375 -5.265625 L 3.609375 -1.03125 C 3.609375 -0.675781 3.5 -0.394531 3.28125 -0.1875 C 3.070312 0.0078125 2.78125 0.109375 2.40625 0.109375 C 2.039062 0.109375 1.753906 0.0078125 1.546875 -0.1875 C 1.335938 -0.394531 1.234375 -0.675781 1.234375 -1.03125 L 1.234375 -12.390625 C 1.234375 -12.710938 1.34375 -12.972656 1.5625 -13.171875 C 1.789062 -13.378906 2.082031 -13.484375 2.4375 -13.484375 C 2.789062 -13.484375 3.070312 -13.390625 3.28125 -13.203125 C 3.5 -13.015625 3.609375 -12.753906 3.609375 -12.421875 L 3.609375 -8 C 3.921875 -8.488281 4.335938 -8.863281 4.859375 -9.125 C 5.390625 -9.382812 5.992188 -9.515625 6.671875 -9.515625 Z M 6.671875 -9.515625 "/></g></g></g></svg>