<svg xmlns="http://www.w3.org/2000/svg" xmlns:xlink="http://www.w3.org/1999/xlink" width="234" zoomAndPan="magnify" viewBox="0 0 175.5 60" height="80" preserveAspectRatio="xMidYMid meet" version="1.0"><defs><g/><clipPath id="3cce973c5d"><path d="M 0.425781 1.324219 L 4.621094 1.324219 L 4.621094 40.425781 L 0.425781 40.425781 Z M 0.425781 1.324219 " clip-rule="nonzero"/></clipPath><clipPath id="45bddfc597"><path d="M 2.523438 1.324219 C 3.683594 1.324219 4.621094 2.265625 4.621094 3.421875 L 4.621094 38.328125 C 4.621094 39.488281 3.683594 40.425781 2.523438 40.425781 C 1.363281 40.425781 0.425781 39.488281 0.425781 38.328125 L 0.425781 3.421875 C 0.425781 2.265625 1.363281 1.324219 2.523438 1.324219 Z M 2.523438 1.324219 " clip-rule="nonzero"/></clipPath></defs><g clip-path="url(#3cce973c5d)"><g clip-path="url(#45bddfc597)"><path fill="#20cd8d" d="M 0.425781 1.324219 L 4.621094 1.324219 L 4.621094 40.425781 L 0.425781 40.425781 Z M 0.425781 1.324219 " fill-opacity="1" fill-rule="nonzero"/></g></g><g fill="#000000" fill-opacity="1"><g transform="translate(19.585366, 23.155839)"><g><path d="M 5.8125 0.09375 C 5.4375 0.09375 5.132812 -0.015625 4.90625 -0.234375 C 4.6875 -0.453125 4.578125 -0.75 4.578125 -1.125 L 4.578125 -11.34375 L 1.140625 -11.34375 C 0.378906 -11.34375 0 -11.675781 0 -12.34375 C 0 -13.007812 0.378906 -13.34375 1.140625 -13.34375 L 10.46875 -13.34375 C 11.226562 -13.34375 11.609375 -13.007812 11.609375 -12.34375 C 11.609375 -11.675781 11.226562 -11.34375 10.46875 -11.34375 L 7.03125 -11.34375 L 7.03125 -1.125 C 7.03125 -0.75 6.914062 -0.453125 6.6875 -0.234375 C 6.46875 -0.015625 6.175781 0.09375 5.8125 0.09375 Z M 5.8125 0.09375 "/></g></g></g><g fill="#000000" fill-opacity="1"><g transform="translate(31.19691, 23.155839)"><g><path d="M 5.25 -9.484375 C 6.53125 -9.484375 7.484375 -9.164062 8.109375 -8.53125 C 8.734375 -7.894531 9.046875 -6.925781 9.046875 -5.625 L 9.046875 -1 C 9.046875 -0.664062 8.945312 -0.398438 8.75 -0.203125 C 8.550781 -0.00390625 8.273438 0.09375 7.921875 0.09375 C 7.585938 0.09375 7.316406 -0.00390625 7.109375 -0.203125 C 6.898438 -0.410156 6.796875 -0.675781 6.796875 -1 L 6.796875 -1.421875 C 6.585938 -0.929688 6.25 -0.546875 5.78125 -0.265625 C 5.320312 0.015625 4.789062 0.15625 4.1875 0.15625 C 3.5625 0.15625 3 0.03125 2.5 -0.21875 C 2 -0.476562 1.601562 -0.828125 1.3125 -1.265625 C 1.019531 -1.710938 0.875 -2.207031 0.875 -2.75 C 0.875 -3.425781 1.046875 -3.957031 1.390625 -4.34375 C 1.734375 -4.738281 2.296875 -5.023438 3.078125 -5.203125 C 3.867188 -5.378906 4.953125 -5.46875 6.328125 -5.46875 L 6.796875 -5.46875 L 6.796875 -5.90625 C 6.796875 -6.53125 6.660156 -6.984375 6.390625 -7.265625 C 6.128906 -7.546875 5.703125 -7.6875 5.109375 -7.6875 C 4.742188 -7.6875 4.367188 -7.628906 3.984375 -7.515625 C 3.609375 -7.410156 3.164062 -7.257812 2.65625 -7.0625 C 2.320312 -6.894531 2.082031 -6.8125 1.9375 -6.8125 C 1.707031 -6.8125 1.519531 -6.894531 1.375 -7.0625 C 1.226562 -7.226562 1.15625 -7.441406 1.15625 -7.703125 C 1.15625 -7.921875 1.207031 -8.109375 1.3125 -8.265625 C 1.425781 -8.421875 1.609375 -8.570312 1.859375 -8.71875 C 2.296875 -8.957031 2.820312 -9.144531 3.4375 -9.28125 C 4.050781 -9.414062 4.65625 -9.484375 5.25 -9.484375 Z M 4.65625 -1.546875 C 5.289062 -1.546875 5.804688 -1.757812 6.203125 -2.1875 C 6.597656 -2.613281 6.796875 -3.160156 6.796875 -3.828125 L 6.796875 -4.21875 L 6.453125 -4.21875 C 5.609375 -4.21875 4.953125 -4.179688 4.484375 -4.109375 C 4.015625 -4.035156 3.679688 -3.898438 3.484375 -3.703125 C 3.285156 -3.515625 3.1875 -3.257812 3.1875 -2.9375 C 3.1875 -2.53125 3.328125 -2.195312 3.609375 -1.9375 C 3.890625 -1.675781 4.238281 -1.546875 4.65625 -1.546875 Z M 4.65625 -1.546875 "/></g></g></g><g fill="#000000" fill-opacity="1"><g transform="translate(41.425668, 23.155839)"><g><path d="M 2.40625 0.109375 C 2.0625 0.109375 1.78125 0.015625 1.5625 -0.171875 C 1.34375 -0.367188 1.234375 -0.648438 1.234375 -1.015625 L 1.234375 -8.328125 C 1.234375 -8.691406 1.34375 -8.96875 1.5625 -9.15625 C 1.78125 -9.351562 2.0625 -9.453125 2.40625 -9.453125 C 2.75 -9.453125 3.03125 -9.351562 3.25 -9.15625 C 3.476562 -8.96875 3.59375 -8.691406 3.59375 -8.328125 L 3.59375 -1.015625 C 3.59375 -0.648438 3.476562 -0.367188 3.25 -0.171875 C 3.03125 0.015625 2.75 0.109375 2.40625 0.109375 Z M 2.40625 -11.140625 C 1.976562 -11.140625 1.640625 -11.253906 1.390625 -11.484375 C 1.140625 -11.722656 1.015625 -12.03125 1.015625 -12.40625 C 1.015625 -12.78125 1.140625 -13.082031 1.390625 -13.3125 C 1.640625 -13.539062 1.976562 -13.65625 2.40625 -13.65625 C 2.820312 -13.65625 3.160156 -13.539062 3.421875 -13.3125 C 3.679688 -13.082031 3.8125 -12.78125 3.8125 -12.40625 C 3.8125 -12.03125 3.679688 -11.722656 3.421875 -11.484375 C 3.171875 -11.253906 2.832031 -11.140625 2.40625 -11.140625 Z M 2.40625 -11.140625 "/></g></g></g><g fill="#000000" fill-opacity="1"><g transform="translate(46.236973, 23.155839)"><g><path d="M 5.90625 -11.59375 C 5.320312 -11.550781 4.894531 -11.375 4.625 -11.0625 C 4.363281 -10.75 4.234375 -10.296875 4.234375 -9.703125 L 4.234375 -9.265625 L 5.859375 -9.265625 C 6.554688 -9.265625 6.90625 -8.96875 6.90625 -8.375 C 6.90625 -7.78125 6.554688 -7.484375 5.859375 -7.484375 L 4.234375 -7.484375 L 4.234375 -1.015625 C 4.234375 -0.648438 4.125 -0.375 3.90625 -0.1875 C 3.6875 0 3.40625 0.09375 3.0625 0.09375 C 2.726562 0.09375 2.445312 0 2.21875 -0.1875 C 1.988281 -0.375 1.875 -0.648438 1.875 -1.015625 L 1.875 -7.484375 L 0.921875 -7.484375 C 0.222656 -7.484375 -0.125 -7.78125 -0.125 -8.375 C -0.125 -8.96875 0.222656 -9.265625 0.921875 -9.265625 L 1.875 -9.265625 L 1.875 -9.390625 C 1.875 -10.578125 2.1875 -11.507812 2.8125 -12.1875 C 3.4375 -12.863281 4.316406 -13.242188 5.453125 -13.328125 L 5.953125 -13.375 C 6.453125 -13.40625 6.804688 -13.347656 7.015625 -13.203125 C 7.222656 -13.054688 7.328125 -12.832031 7.328125 -12.53125 C 7.328125 -11.988281 7.019531 -11.6875 6.40625 -11.625 Z M 5.90625 -11.59375 "/></g></g></g><g fill="#000000" fill-opacity="1"><g transform="translate(53.018259, 23.155839)"><g><path d="M 5.25 -9.484375 C 6.53125 -9.484375 7.484375 -9.164062 8.109375 -8.53125 C 8.734375 -7.894531 9.046875 -6.925781 9.046875 -5.625 L 9.046875 -1 C 9.046875 -0.664062 8.945312 -0.398438 8.75 -0.203125 C 8.550781 -0.00390625 8.273438 0.09375 7.921875 0.09375 C 7.585938 0.09375 7.316406 -0.00390625 7.109375 -0.203125 C 6.898438 -0.410156 6.796875 -0.675781 6.796875 -1 L 6.796875 -1.421875 C 6.585938 -0.929688 6.25 -0.546875 5.78125 -0.265625 C 5.320312 0.015625 4.789062 0.15625 4.1875 0.15625 C 3.5625 0.15625 3 0.03125 2.5 -0.21875 C 2 -0.476562 1.601562 -0.828125 1.3125 -1.265625 C 1.019531 -1.710938 0.875 -2.207031 0.875 -2.75 C 0.875 -3.425781 1.046875 -3.957031 1.390625 -4.34375 C 1.734375 -4.738281 2.296875 -5.023438 3.078125 -5.203125 C 3.867188 -5.378906 4.953125 -5.46875 6.328125 -5.46875 L 6.796875 -5.46875 L 6.796875 -5.90625 C 6.796875 -6.53125 6.660156 -6.984375 6.390625 -7.265625 C 6.128906 -7.546875 5.703125 -7.6875 5.109375 -7.6875 C 4.742188 -7.6875 4.367188 -7.628906 3.984375 -7.515625 C 3.609375 -7.410156 3.164062 -7.257812 2.65625 -7.0625 C 2.320312 -6.894531 2.082031 -6.8125 1.9375 -6.8125 C 1.707031 -6.8125 1.519531 -6.894531 1.375 -7.0625 C 1.226562 -7.226562 1.15625 -7.441406 1.15625 -7.703125 C 1.15625 -7.921875 1.207031 -8.109375 1.3125 -8.265625 C 1.425781 -8.421875 1.609375 -8.570312 1.859375 -8.71875 C 2.296875 -8.957031 2.820312 -9.144531 3.4375 -9.28125 C 4.050781 -9.414062 4.65625 -9.484375 5.25 -9.484375 Z M 4.65625 -1.546875 C 5.289062 -1.546875 5.804688 -1.757812 6.203125 -2.1875 C 6.597656 -2.613281 6.796875 -3.160156 6.796875 -3.828125 L 6.796875 -4.21875 L 6.453125 -4.21875 C 5.609375 -4.21875 4.953125 -4.179688 4.484375 -4.109375 C 4.015625 -4.035156 3.679688 -3.898438 3.484375 -3.703125 C 3.285156 -3.515625 3.1875 -3.257812 3.1875 -2.9375 C 3.1875 -2.53125 3.328125 -2.195312 3.609375 -1.9375 C 3.890625 -1.675781 4.238281 -1.546875 4.65625 -1.546875 Z M 4.65625 -1.546875 "/></g></g></g><g fill="#000000" fill-opacity="1"><g transform="translate(63.253921, 23.155839)"><g/></g></g><g fill="#000000" fill-opacity="1"><g transform="translate(19.585366, 49.331264)"><g><path d="M 11.875 -13.453125 C 12.238281 -13.453125 12.523438 -13.335938 12.734375 -13.109375 C 12.953125 -12.890625 13.0625 -12.597656 13.0625 -12.234375 L 13.0625 -1.125 C 13.0625 -0.75 12.953125 -0.445312 12.734375 -0.21875 C 12.515625 0 12.226562 0.109375 11.875 0.109375 C 11.507812 0.109375 11.21875 0 11 -0.21875 C 10.789062 -0.445312 10.6875 -0.75 10.6875 -1.125 L 10.6875 -5.796875 L 3.84375 -5.796875 L 3.84375 -1.125 C 3.84375 -0.75 3.734375 -0.445312 3.515625 -0.21875 C 3.296875 0 3 0.109375 2.625 0.109375 C 2.28125 0.109375 1.992188 0 1.765625 -0.21875 C 1.546875 -0.445312 1.4375 -0.75 1.4375 -1.125 L 1.4375 -12.234375 C 1.4375 -12.597656 1.539062 -12.890625 1.75 -13.109375 C 1.96875 -13.335938 2.257812 -13.453125 2.625 -13.453125 C 3 -13.453125 3.296875 -13.335938 3.515625 -13.109375 C 3.734375 -12.890625 3.84375 -12.597656 3.84375 -12.234375 L 3.84375 -7.765625 L 10.6875 -7.765625 L 10.6875 -12.234375 C 10.6875 -12.597656 10.789062 -12.890625 11 -13.109375 C 11.21875 -13.335938 11.507812 -13.453125 11.875 -13.453125 Z M 11.875 -13.453125 "/></g></g></g><g fill="#000000" fill-opacity="1"><g transform="translate(34.095052, 49.331264)"><g><path d="M 8.5625 -2.53125 C 8.769531 -2.53125 8.941406 -2.445312 9.078125 -2.28125 C 9.210938 -2.125 9.28125 -1.90625 9.28125 -1.625 C 9.28125 -1.238281 9.046875 -0.910156 8.578125 -0.640625 C 8.148438 -0.398438 7.664062 -0.207031 7.125 -0.0625 C 6.582031 0.0820312 6.0625 0.15625 5.5625 0.15625 C 4.070312 0.15625 2.890625 -0.269531 2.015625 -1.125 C 1.148438 -1.988281 0.71875 -3.164062 0.71875 -4.65625 C 0.71875 -5.601562 0.90625 -6.441406 1.28125 -7.171875 C 1.664062 -7.910156 2.203125 -8.476562 2.890625 -8.875 C 3.578125 -9.28125 4.359375 -9.484375 5.234375 -9.484375 C 6.066406 -9.484375 6.789062 -9.300781 7.40625 -8.9375 C 8.019531 -8.570312 8.5 -8.050781 8.84375 -7.375 C 9.1875 -6.707031 9.359375 -5.921875 9.359375 -5.015625 C 9.359375 -4.472656 9.117188 -4.203125 8.640625 -4.203125 L 3.046875 -4.203125 C 3.117188 -3.328125 3.363281 -2.6875 3.78125 -2.28125 C 4.195312 -1.875 4.804688 -1.671875 5.609375 -1.671875 C 6.015625 -1.671875 6.367188 -1.71875 6.671875 -1.8125 C 6.984375 -1.914062 7.332031 -2.054688 7.71875 -2.234375 C 8.101562 -2.429688 8.382812 -2.53125 8.5625 -2.53125 Z M 5.28125 -7.828125 C 4.632812 -7.828125 4.117188 -7.625 3.734375 -7.21875 C 3.347656 -6.8125 3.117188 -6.226562 3.046875 -5.46875 L 7.328125 -5.46875 C 7.304688 -6.238281 7.117188 -6.820312 6.765625 -7.21875 C 6.410156 -7.625 5.914062 -7.828125 5.28125 -7.828125 Z M 5.28125 -7.828125 "/></g></g></g><g fill="#000000" fill-opacity="1"><g transform="translate(44.153333, 49.331264)"><g><path d="M 5.25 -9.484375 C 6.53125 -9.484375 7.484375 -9.164062 8.109375 -8.53125 C 8.734375 -7.894531 9.046875 -6.925781 9.046875 -5.625 L 9.046875 -1 C 9.046875 -0.664062 8.945312 -0.398438 8.75 -0.203125 C 8.550781 -0.00390625 8.273438 0.09375 7.921875 0.09375 C 7.585938 0.09375 7.316406 -0.00390625 7.109375 -0.203125 C 6.898438 -0.410156 6.796875 -0.675781 6.796875 -1 L 6.796875 -1.421875 C 6.585938 -0.929688 6.25 -0.546875 5.78125 -0.265625 C 5.320312 0.015625 4.789062 0.15625 4.1875 0.15625 C 3.5625 0.15625 3 0.03125 2.5 -0.21875 C 2 -0.476562 1.601562 -0.828125 1.3125 -1.265625 C 1.019531 -1.710938 0.875 -2.207031 0.875 -2.75 C 0.875 -3.425781 1.046875 -3.957031 1.390625 -4.34375 C 1.734375 -4.738281 2.296875 -5.023438 3.078125 -5.203125 C 3.867188 -5.378906 4.953125 -5.46875 6.328125 -5.46875 L 6.796875 -5.46875 L 6.796875 -5.90625 C 6.796875 -6.53125 6.660156 -6.984375 6.390625 -7.265625 C 6.128906 -7.546875 5.703125 -7.6875 5.109375 -7.6875 C 4.742188 -7.6875 4.367188 -7.628906 3.984375 -7.515625 C 3.609375 -7.410156 3.164062 -7.257812 2.65625 -7.0625 C 2.320312 -6.894531 2.082031 -6.8125 1.9375 -6.8125 C 1.707031 -6.8125 1.519531 -6.894531 1.375 -7.0625 C 1.226562 -7.226562 1.15625 -7.441406 1.15625 -7.703125 C 1.15625 -7.921875 1.207031 -8.109375 1.3125 -8.265625 C 1.425781 -8.421875 1.609375 -8.570312 1.859375 -8.71875 C 2.296875 -8.957031 2.820312 -9.144531 3.4375 -9.28125 C 4.050781 -9.414062 4.65625 -9.484375 5.25 -9.484375 Z M 4.65625 -1.546875 C 5.289062 -1.546875 5.804688 -1.757812 6.203125 -2.1875 C 6.597656 -2.613281 6.796875 -3.160156 6.796875 -3.828125 L 6.796875 -4.21875 L 6.453125 -4.21875 C 5.609375 -4.21875 4.953125 -4.179688 4.484375 -4.109375 C 4.015625 -4.035156 3.679688 -3.898438 3.484375 -3.703125 C 3.285156 -3.515625 3.1875 -3.257812 3.1875 -2.9375 C 3.1875 -2.53125 3.328125 -2.195312 3.609375 -1.9375 C 3.890625 -1.675781 4.238281 -1.546875 4.65625 -1.546875 Z M 4.65625 -1.546875 "/></g></g></g><g fill="#000000" fill-opacity="1"><g transform="translate(54.382091, 49.331264)"><g><path d="M 2.40625 0.109375 C 2.0625 0.109375 1.78125 0.015625 1.5625 -0.171875 C 1.34375 -0.367188 1.234375 -0.648438 1.234375 -1.015625 L 1.234375 -12.328125 C 1.234375 -12.691406 1.34375 -12.96875 1.5625 -13.15625 C 1.78125 -13.351562 2.0625 -13.453125 2.40625 -13.453125 C 2.75 -13.453125 3.03125 -13.351562 3.25 -13.15625 C 3.476562 -12.96875 3.59375 -12.691406 3.59375 -12.328125 L 3.59375 -1.015625 C 3.59375 -0.648438 3.476562 -0.367188 3.25 -0.171875 C 3.03125 0.015625 2.75 0.109375 2.40625 0.109375 Z M 2.40625 0.109375 "/></g></g></g><g fill="#000000" fill-opacity="1"><g transform="translate(59.193395, 49.331264)"><g><path d="M 6.046875 -1.640625 C 6.671875 -1.609375 6.984375 -1.328125 6.984375 -0.796875 C 6.984375 -0.492188 6.859375 -0.265625 6.609375 -0.109375 C 6.367188 0.046875 6.019531 0.113281 5.5625 0.09375 L 5.0625 0.0625 C 2.9375 -0.09375 1.875 -1.234375 1.875 -3.359375 L 1.875 -7.484375 L 0.921875 -7.484375 C 0.585938 -7.484375 0.328125 -7.554688 0.140625 -7.703125 C -0.0351562 -7.859375 -0.125 -8.082031 -0.125 -8.375 C -0.125 -8.664062 -0.0351562 -8.882812 0.140625 -9.03125 C 0.328125 -9.1875 0.585938 -9.265625 0.921875 -9.265625 L 1.875 -9.265625 L 1.875 -11 C 1.875 -11.34375 1.976562 -11.613281 2.1875 -11.8125 C 2.40625 -12.019531 2.695312 -12.125 3.0625 -12.125 C 3.414062 -12.125 3.695312 -12.019531 3.90625 -11.8125 C 4.125 -11.613281 4.234375 -11.34375 4.234375 -11 L 4.234375 -9.265625 L 5.859375 -9.265625 C 6.191406 -9.265625 6.445312 -9.1875 6.625 -9.03125 C 6.8125 -8.882812 6.90625 -8.664062 6.90625 -8.375 C 6.90625 -8.082031 6.8125 -7.859375 6.625 -7.703125 C 6.445312 -7.554688 6.191406 -7.484375 5.859375 -7.484375 L 4.234375 -7.484375 L 4.234375 -3.1875 C 4.234375 -2.25 4.664062 -1.75 5.53125 -1.6875 Z M 6.046875 -1.640625 "/></g></g></g><g fill="#000000" fill-opacity="1"><g transform="translate(66.183045, 49.331264)"><g><path d="M 6.640625 -9.484375 C 8.816406 -9.484375 9.90625 -8.21875 9.90625 -5.6875 L 9.90625 -1.015625 C 9.90625 -0.671875 9.800781 -0.394531 9.59375 -0.1875 C 9.382812 0.0078125 9.097656 0.109375 8.734375 0.109375 C 8.367188 0.109375 8.078125 0.0078125 7.859375 -0.1875 C 7.640625 -0.394531 7.53125 -0.671875 7.53125 -1.015625 L 7.53125 -5.6875 C 7.53125 -6.351562 7.394531 -6.835938 7.125 -7.140625 C 6.851562 -7.453125 6.429688 -7.609375 5.859375 -7.609375 C 5.171875 -7.609375 4.617188 -7.394531 4.203125 -6.96875 C 3.796875 -6.539062 3.59375 -5.96875 3.59375 -5.25 L 3.59375 -1.015625 C 3.59375 -0.671875 3.484375 -0.394531 3.265625 -0.1875 C 3.054688 0.0078125 2.769531 0.109375 2.40625 0.109375 C 2.039062 0.109375 1.753906 0.0078125 1.546875 -0.1875 C 1.335938 -0.394531 1.234375 -0.671875 1.234375 -1.015625 L 1.234375 -12.34375 C 1.234375 -12.675781 1.34375 -12.941406 1.5625 -13.140625 C 1.78125 -13.347656 2.066406 -13.453125 2.421875 -13.453125 C 2.773438 -13.453125 3.054688 -13.351562 3.265625 -13.15625 C 3.484375 -12.96875 3.59375 -12.710938 3.59375 -12.390625 L 3.59375 -7.96875 C 3.914062 -8.46875 4.335938 -8.84375 4.859375 -9.09375 C 5.378906 -9.351562 5.972656 -9.484375 6.640625 -9.484375 Z M 6.640625 -9.484375 "/></g></g></g></svg>