<svg xmlns="http://www.w3.org/2000/svg" xmlns:xlink="http://www.w3.org/1999/xlink" width="885" zoomAndPan="magnify" viewBox="0 0 663.75 75.749997" height="101" preserveAspectRatio="xMidYMid meet" version="1.0"><defs><g/><clipPath id="e99970461a"><path d="M 1.15625 8.820312 L 661.914062 8.820312 L 661.914062 75.457031 L 1.15625 75.457031 Z M 1.15625 8.820312 " clip-rule="nonzero"/></clipPath><clipPath id="fd96baff23"><path d="M 519.453125 24 L 533 24 L 533 49 L 519.453125 49 Z M 519.453125 24 " clip-rule="nonzero"/></clipPath><clipPath id="d410cd8cfc"><path d="M 559 0.28125 L 574 0.28125 L 574 25 L 559 25 Z M 559 0.28125 " clip-rule="nonzero"/></clipPath><clipPath id="22c9dd0896"><path d="M 559 48 L 574 48 L 574 72.789062 L 559 72.789062 Z M 559 48 " clip-rule="nonzero"/></clipPath><clipPath id="c583bb2051"><path d="M 532 48 L 547 48 L 547 72.789062 L 532 72.789062 Z M 532 48 " clip-rule="nonzero"/></clipPath><clipPath id="f0a59c165d"><path d="M 532 0.28125 L 547 0.28125 L 547 25 L 532 25 Z M 532 0.28125 " clip-rule="nonzero"/></clipPath><clipPath id="b8d01351da"><path d="M 580 36 L 593.460938 36 L 593.460938 61 L 580 61 Z M 580 36 " clip-rule="nonzero"/></clipPath><clipPath id="096c61880d"><path d="M 43 21.132812 L 82 21.132812 L 82 36 L 43 36 Z M 43 21.132812 " clip-rule="nonzero"/></clipPath><clipPath id="9006c635df"><path d="M 32 32 L 92.539062 32 L 92.539062 62.996094 L 32 62.996094 Z M 32 32 " clip-rule="nonzero"/></clipPath></defs><g clip-path="url(#e99970461a)"><path fill="#8ac9ce" d="M 1.15625 8.820312 L 661.914062 8.820312 L 661.914062 75.457031 L 1.15625 75.457031 Z M 1.15625 8.820312 " fill-opacity="1" fill-rule="nonzero"/></g><g clip-path="url(#fd96baff23)"><path fill="#5eb229" d="M 526.175781 48.828125 L 519.453125 48.828125 L 519.453125 31.296875 C 519.453125 27.578125 522.460938 24.574219 526.175781 24.574219 L 532.898438 24.574219 L 532.898438 42.105469 C 532.898438 45.820312 529.890625 48.828125 526.175781 48.828125 Z M 526.175781 48.828125 " fill-opacity="1" fill-rule="evenodd"/></g><path fill="#4a99ab" d="M 573.289062 12.417969 L 566.550781 12.417969 L 566.550781 29.964844 C 566.550781 33.679688 569.570312 36.699219 573.289062 36.699219 L 580.023438 36.699219 L 580.023438 19.15625 C 580.011719 15.4375 577.003906 12.417969 573.289062 12.417969 Z M 573.289062 12.417969 " fill-opacity="1" fill-rule="evenodd"/><path fill="#72a603" d="M 580.011719 24.574219 L 586.746094 24.574219 L 586.746094 42.105469 C 586.746094 45.820312 583.726562 48.839844 580.011719 48.839844 L 573.273438 48.839844 L 573.273438 31.3125 C 573.289062 27.59375 576.292969 24.574219 580.011719 24.574219 Z M 580.011719 24.574219 " fill-opacity="1" fill-rule="evenodd"/><g clip-path="url(#d410cd8cfc)"><path fill="#72a603" d="M 566.550781 0.292969 L 573.273438 0.292969 L 573.273438 17.851562 C 573.273438 21.570312 570.269531 24.574219 566.550781 24.574219 L 559.828125 24.574219 L 559.828125 7.015625 C 559.828125 3.296875 562.851562 0.292969 566.550781 0.292969 Z M 566.550781 0.292969 " fill-opacity="1" fill-rule="evenodd"/></g><g clip-path="url(#22c9dd0896)"><path fill="#5eb229" d="M 566.550781 48.828125 L 573.273438 48.828125 L 573.273438 66.355469 C 573.273438 70.074219 570.269531 73.078125 566.550781 73.078125 L 559.828125 73.078125 L 559.828125 55.546875 C 559.828125 51.847656 562.851562 48.828125 566.550781 48.828125 Z M 566.550781 48.828125 " fill-opacity="1" fill-rule="evenodd"/></g><g clip-path="url(#c583bb2051)"><path fill="#4a99ab" d="M 539.632812 73.09375 L 532.898438 73.09375 L 532.898438 55.5625 C 532.898438 51.847656 535.917969 48.828125 539.632812 48.828125 L 546.371094 48.828125 L 546.371094 66.355469 C 546.371094 70.074219 543.351562 73.09375 539.632812 73.09375 Z M 539.632812 73.09375 " fill-opacity="1" fill-rule="evenodd"/></g><path fill="#4a99ab" d="M 546.371094 36.699219 L 539.632812 36.699219 L 539.632812 19.15625 C 539.632812 15.4375 542.65625 12.417969 546.371094 12.417969 L 553.109375 12.417969 L 553.109375 29.964844 C 553.109375 33.679688 550.085938 36.699219 546.371094 36.699219 Z M 546.371094 36.699219 " fill-opacity="1" fill-rule="evenodd"/><g clip-path="url(#f0a59c165d)"><path fill="#5eb229" d="M 539.632812 24.542969 L 532.898438 24.542969 L 532.898438 7.132812 C 532.898438 3.359375 535.917969 0.292969 539.632812 0.292969 L 546.371094 0.292969 L 546.371094 17.703125 C 546.371094 21.480469 543.351562 24.542969 539.632812 24.542969 Z M 533.414062 24.027344 L 539.632812 24.027344 C 543.070312 24.027344 545.851562 21.183594 545.851562 17.703125 L 545.851562 0.8125 L 539.632812 0.8125 C 536.199219 0.8125 533.414062 3.652344 533.414062 7.132812 Z M 533.414062 24.027344 " fill-opacity="1" fill-rule="nonzero"/></g><g clip-path="url(#b8d01351da)"><path fill="#5eb229" d="M 586.746094 60.96875 L 580.011719 60.96875 L 580.011719 43.539062 C 580.011719 39.765625 583.03125 36.699219 586.746094 36.699219 L 593.484375 36.699219 L 593.484375 54.113281 C 593.484375 57.886719 590.460938 60.96875 586.746094 60.96875 Z M 580.527344 60.433594 L 586.746094 60.433594 C 590.179688 60.433594 592.964844 57.589844 592.964844 54.113281 L 592.964844 37.21875 L 586.746094 37.21875 C 583.3125 37.21875 580.527344 40.0625 580.527344 43.539062 Z M 580.527344 60.433594 " fill-opacity="1" fill-rule="nonzero"/></g><path fill="#5eb229" d="M 553.109375 48.828125 L 546.371094 48.828125 L 546.371094 31.3125 C 546.371094 27.59375 549.390625 24.574219 553.109375 24.574219 L 559.84375 24.574219 L 559.84375 42.105469 C 559.828125 45.820312 556.824219 48.828125 553.109375 48.828125 Z M 553.109375 48.828125 " fill-opacity="1" fill-rule="evenodd"/><g clip-path="url(#096c61880d)"><path fill="#b8e1f1" d="M 43.269531 35.621094 C 45.160156 35.574219 47.050781 35.53125 48.945312 35.5 C 48.832031 33.578125 48.75 31.65625 48.703125 29.742188 C 48.6875 29.164062 48.6875 28.835938 49.066406 28.359375 C 50.195312 26.945312 52.210938 27.496094 53.894531 27.394531 C 55.679688 27.285156 57.457031 27.238281 59.234375 27.191406 C 62.796875 27.09375 66.355469 27.167969 69.925781 27.414062 C 70.417969 27.4375 74.679688 27.480469 75.742188 28.675781 C 77.101562 30.15625 75.636719 35.488281 75.605469 35.5 C 77.496094 35.53125 79.386719 35.574219 81.277344 35.621094 C 81.386719 33.1875 81.421875 30.753906 81.375 28.332031 C 81.359375 27.046875 80.785156 25.75 79.8125 24.664062 C 78.742188 23.472656 77.289062 22.65625 75.816406 22.449219 C 66.746094 21.152344 57.804688 21.148438 48.734375 22.449219 C 47.257812 22.65625 45.804688 23.472656 44.738281 24.664062 C 43.761719 25.75 43.191406 27.046875 43.171875 28.324219 C 43.128906 30.75 43.164062 33.183594 43.269531 35.621094 Z M 43.269531 35.621094 " fill-opacity="1" fill-rule="nonzero"/></g><g clip-path="url(#9006c635df)"><path fill="#b8e1f1" d="M 88.777344 59.457031 C 88.210938 61.347656 86.222656 62.929688 84.398438 62.960938 C 67.679688 62.933594 56.867188 62.933594 40.152344 62.960938 C 38.324219 62.929688 36.339844 61.347656 35.769531 59.457031 C 33.683594 52.296875 32.382812 45.222656 32.078125 38.234375 C 31.996094 36.390625 33.808594 34.652344 36.015625 34.375 C 56.0625 31.9375 68.484375 31.9375 88.53125 34.375 C 90.742188 34.652344 92.554688 36.390625 92.46875 38.234375 C 92.164062 45.222656 90.867188 52.296875 88.777344 59.457031 Z M 88.777344 59.457031 " fill-opacity="1" fill-rule="nonzero"/></g><path fill="#414370" d="M 88.535156 34.683594 C 88.519531 34.683594 88.507812 34.683594 88.496094 34.683594 C 68.402344 32.238281 56.148438 32.238281 36.054688 34.683594 C 35.882812 34.703125 35.730469 34.582031 35.707031 34.414062 C 35.6875 34.242188 35.808594 34.089844 35.980469 34.070312 C 56.128906 31.617188 68.417969 31.617188 88.570312 34.070312 C 88.742188 34.089844 88.863281 34.242188 88.839844 34.414062 C 88.820312 34.570312 88.6875 34.683594 88.535156 34.683594 Z M 88.535156 34.683594 " fill-opacity="1" fill-rule="nonzero"/><path fill="#414370" d="M 39.4375 60.570312 C 39.40625 60.566406 39.367188 60.570312 39.335938 60.566406 C 38.777344 60.519531 38.246094 60.070312 38.101562 59.527344 C 37.933594 58.910156 37.773438 58.28125 37.617188 57.660156 C 35.90625 50.792969 34.890625 44.152344 34.609375 37.921875 C 34.597656 37.683594 34.691406 37.453125 34.890625 37.238281 C 35.160156 36.949219 35.570312 36.757812 36.011719 36.710938 C 46.503906 35.582031 54.589844 35.078125 62.210938 35.078125 C 62.253906 35.078125 62.296875 35.078125 62.339844 35.078125 C 69.960938 35.078125 78.046875 35.582031 88.539062 36.710938 C 88.980469 36.757812 89.386719 36.949219 89.65625 37.238281 C 89.855469 37.453125 89.953125 37.683594 89.941406 37.929688 C 89.777344 41.550781 89.363281 45.328125 88.71875 49.15625 C 88.152344 52.503906 87.390625 55.992188 86.453125 59.523438 C 86.304688 60.070312 85.773438 60.519531 85.214844 60.566406 C 85.183594 60.570312 85.148438 60.570312 85.113281 60.570312 C 84.941406 60.570312 84.804688 60.433594 84.804688 60.261719 C 84.804688 60.089844 84.941406 59.953125 85.113281 59.953125 C 85.128906 59.953125 85.144531 59.953125 85.160156 59.949219 C 85.457031 59.925781 85.773438 59.65625 85.851562 59.363281 C 86.785156 55.851562 87.542969 52.382812 88.105469 49.054688 C 88.746094 45.25 89.15625 41.5 89.320312 37.898438 C 89.320312 37.871094 89.324219 37.789062 89.203125 37.65625 C 89.035156 37.476562 88.765625 37.355469 88.472656 37.324219 C 78.003906 36.199219 69.9375 35.695312 62.339844 35.695312 C 62.296875 35.695312 62.253906 35.695312 62.210938 35.695312 C 54.613281 35.695312 46.546875 36.199219 36.078125 37.324219 C 35.78125 37.355469 35.515625 37.476562 35.347656 37.660156 C 35.292969 37.71875 35.226562 37.808594 35.230469 37.894531 C 35.511719 44.082031 36.519531 50.683594 38.222656 57.511719 C 38.375 58.128906 38.539062 58.753906 38.699219 59.371094 C 38.777344 59.660156 39.09375 59.925781 39.390625 59.949219 C 39.40625 59.953125 39.421875 59.953125 39.4375 59.953125 C 39.609375 59.953125 39.746094 60.09375 39.746094 60.261719 C 39.746094 60.433594 39.605469 60.570312 39.4375 60.570312 Z M 39.4375 60.570312 " fill-opacity="1" fill-rule="nonzero"/><path fill="#ffffff" d="M 68.703125 45.203125 C 67.785156 45.113281 66.863281 45.050781 65.941406 45 C 65.964844 44.039062 65.988281 43.078125 66.011719 42.117188 C 66.023438 41.535156 65.804688 40.976562 65.390625 40.550781 C 64.960938 40.105469 64.355469 39.84375 63.722656 39.832031 C 62.757812 39.816406 61.792969 39.816406 60.824219 39.832031 C 60.195312 39.84375 59.585938 40.105469 59.160156 40.550781 C 58.746094 40.976562 58.527344 41.53125 58.539062 42.113281 C 58.5625 43.074219 58.585938 44.035156 58.609375 45 C 57.683594 45.046875 56.761719 45.113281 55.847656 45.203125 C 54.632812 45.316406 53.738281 46.390625 53.859375 47.59375 C 53.9375 48.378906 54.019531 49.164062 54.101562 49.949219 C 54.234375 51.171875 55.316406 52.097656 56.539062 51.988281 C 57.292969 51.917969 58.054688 51.867188 58.816406 51.828125 C 58.847656 52.757812 58.882812 53.691406 58.917969 54.621094 C 58.964844 55.839844 59.933594 56.804688 61.113281 56.808594 C 61.125 56.808594 61.136719 56.808594 61.148438 56.808594 C 61.898438 56.800781 62.648438 56.800781 63.398438 56.808594 C 63.410156 56.808594 63.421875 56.808594 63.433594 56.808594 C 64.617188 56.804688 65.582031 55.839844 65.632812 54.621094 C 65.667969 53.6875 65.699219 52.757812 65.734375 51.828125 C 66.496094 51.867188 67.253906 51.917969 68.007812 51.988281 C 68.082031 51.992188 68.152344 51.996094 68.222656 51.996094 C 69.363281 51.984375 70.320312 51.101562 70.445312 49.945312 C 70.53125 49.160156 70.609375 48.378906 70.6875 47.59375 C 70.8125 46.390625 69.917969 45.316406 68.703125 45.203125 Z M 68.703125 45.203125 " fill-opacity="1" fill-rule="nonzero"/><g fill="#72a603" fill-opacity="1"><g transform="translate(102.053415, 41.555743)"><g><path d="M 8.4375 -9.1875 L 8.4375 0 L 4.46875 0 L 4.46875 -9.1875 L 0.40625 -9.1875 L 0.40625 -12.34375 L 12.46875 -12.34375 L 12.46875 -9.1875 Z M 8.4375 -9.1875 "/></g></g></g><g fill="#72a603" fill-opacity="1"><g transform="translate(115.006621, 41.555743)"><g><path d="M 9.59375 0 L 9.078125 -1.734375 L 4.75 -1.734375 L 4.234375 0 L 0.171875 0 L 4.6875 -12.34375 L 9.296875 -12.34375 L 13.796875 0 Z M 5.578125 -4.5 L 8.25 -4.5 L 6.953125 -8.890625 L 6.890625 -8.890625 Z M 5.578125 -4.5 "/></g></g></g><g fill="#72a603" fill-opacity="1"><g transform="translate(128.964517, 41.555743)"><g><path d="M 1.5 0 L 1.5 -12.34375 L 5.46875 -12.34375 L 5.46875 0 Z M 1.5 0 "/></g></g></g><g fill="#72a603" fill-opacity="1"><g transform="translate(135.94346, 41.555743)"><g><path d="M 1.328125 -12.34375 L 11.296875 -12.34375 L 11.296875 -9.375 L 5.296875 -9.375 L 5.296875 -7.265625 L 10.453125 -7.265625 L 10.453125 -4.4375 L 5.296875 -4.4375 L 5.296875 0 L 1.328125 0 Z M 1.328125 -12.34375 "/></g></g></g><g fill="#72a603" fill-opacity="1"><g transform="translate(147.909928, 41.555743)"><g><path d="M 9.59375 0 L 9.078125 -1.734375 L 4.75 -1.734375 L 4.234375 0 L 0.171875 0 L 4.6875 -12.34375 L 9.296875 -12.34375 L 13.796875 0 Z M 5.578125 -4.5 L 8.25 -4.5 L 6.953125 -8.890625 L 6.890625 -8.890625 Z M 5.578125 -4.5 "/></g></g></g><g fill="#72a603" fill-opacity="1"><g transform="translate(161.867824, 41.555743)"><g/></g></g><g fill="#72a603" fill-opacity="1"><g transform="translate(167.842087, 41.555743)"><g><path d="M 9.65625 0 L 9.65625 -4.6875 L 5.296875 -4.6875 L 5.296875 0 L 1.328125 0 L 1.328125 -12.34375 L 5.296875 -12.34375 L 5.296875 -7.84375 L 9.65625 -7.84375 L 9.65625 -12.34375 L 13.609375 -12.34375 L 13.609375 0 Z M 9.65625 0 "/></g></g></g><g fill="#72a603" fill-opacity="1"><g transform="translate(182.786721, 41.555743)"><g><path d="M 1.328125 -12.34375 L 12 -12.34375 L 12 -9.375 L 5.296875 -9.375 L 5.296875 -7.671875 L 11.03125 -7.671875 L 11.03125 -4.84375 L 5.296875 -4.84375 L 5.296875 -2.953125 L 12.125 -2.953125 L 12.125 0 L 1.328125 0 Z M 1.328125 -12.34375 "/></g></g></g><g fill="#72a603" fill-opacity="1"><g transform="translate(195.739926, 41.555743)"><g><path d="M 9.59375 0 L 9.078125 -1.734375 L 4.75 -1.734375 L 4.234375 0 L 0.171875 0 L 4.6875 -12.34375 L 9.296875 -12.34375 L 13.796875 0 Z M 5.578125 -4.5 L 8.25 -4.5 L 6.953125 -8.890625 L 6.890625 -8.890625 Z M 5.578125 -4.5 "/></g></g></g><g fill="#72a603" fill-opacity="1"><g transform="translate(209.697823, 41.555743)"><g><path d="M 1.328125 -12.34375 L 5.296875 -12.34375 L 5.296875 -3.15625 L 11.625 -3.15625 L 11.625 0 L 1.328125 0 Z M 1.328125 -12.34375 "/></g></g></g><g fill="#72a603" fill-opacity="1"><g transform="translate(221.664291, 41.555743)"><g><path d="M 8.4375 -9.1875 L 8.4375 0 L 4.46875 0 L 4.46875 -9.1875 L 0.40625 -9.1875 L 0.40625 -12.34375 L 12.46875 -12.34375 L 12.46875 -9.1875 Z M 8.4375 -9.1875 "/></g></g></g><g fill="#72a603" fill-opacity="1"><g transform="translate(234.617496, 41.555743)"><g><path d="M 9.65625 0 L 9.65625 -4.6875 L 5.296875 -4.6875 L 5.296875 0 L 1.328125 0 L 1.328125 -12.34375 L 5.296875 -12.34375 L 5.296875 -7.84375 L 9.65625 -7.84375 L 9.65625 -12.34375 L 13.609375 -12.34375 L 13.609375 0 Z M 9.65625 0 "/></g></g></g><g fill="#000000" fill-opacity="1"><g transform="translate(104.780171, 53.549366)"><g><path d="M 2.75 -3.390625 L 0.09375 -8.203125 L 1.25 -8.203125 L 3.328125 -4.40625 L 3.375 -4.40625 L 5.421875 -8.203125 L 6.4375 -8.203125 L 3.796875 -3.390625 L 3.796875 0 L 2.75 0 Z M 2.75 -3.390625 "/></g></g></g><g fill="#000000" fill-opacity="1"><g transform="translate(112.49472, 53.549366)"><g><path d="M 3.8125 0.140625 C 2.789062 0.140625 1.992188 -0.21875 1.421875 -0.9375 C 0.859375 -1.65625 0.578125 -2.707031 0.578125 -4.09375 C 0.578125 -5.488281 0.859375 -6.546875 1.421875 -7.265625 C 1.992188 -7.984375 2.789062 -8.34375 3.8125 -8.34375 C 4.832031 -8.34375 5.625 -7.984375 6.1875 -7.265625 C 6.757812 -6.546875 7.046875 -5.488281 7.046875 -4.09375 C 7.046875 -2.707031 6.757812 -1.65625 6.1875 -0.9375 C 5.625 -0.21875 4.832031 0.140625 3.8125 0.140625 Z M 3.8125 -0.828125 C 4.476562 -0.828125 5 -1.078125 5.375 -1.578125 C 5.75 -2.078125 5.9375 -2.816406 5.9375 -3.796875 L 5.9375 -4.40625 C 5.9375 -5.382812 5.75 -6.125 5.375 -6.625 C 5 -7.125 4.476562 -7.375 3.8125 -7.375 C 3.144531 -7.375 2.625 -7.125 2.25 -6.625 C 1.875 -6.125 1.6875 -5.382812 1.6875 -4.40625 L 1.6875 -3.796875 C 1.6875 -2.816406 1.875 -2.078125 2.25 -1.578125 C 2.625 -1.078125 3.144531 -0.828125 3.8125 -0.828125 Z M 3.8125 -0.828125 "/></g></g></g><g fill="#000000" fill-opacity="1"><g transform="translate(121.297684, 53.549366)"><g><path d="M 3.53125 0.140625 C 2.6875 0.140625 2.023438 -0.0976562 1.546875 -0.578125 C 1.078125 -1.054688 0.84375 -1.753906 0.84375 -2.671875 L 0.84375 -8.203125 L 1.890625 -8.203125 L 1.890625 -2.609375 C 1.890625 -2.035156 2.035156 -1.59375 2.328125 -1.28125 C 2.617188 -0.976562 3.019531 -0.828125 3.53125 -0.828125 C 4.050781 -0.828125 4.457031 -0.976562 4.75 -1.28125 C 5.039062 -1.59375 5.1875 -2.035156 5.1875 -2.609375 L 5.1875 -8.203125 L 6.234375 -8.203125 L 6.234375 -2.671875 C 6.234375 -1.753906 5.992188 -1.054688 5.515625 -0.578125 C 5.046875 -0.0976562 4.382812 0.140625 3.53125 0.140625 Z M 3.53125 0.140625 "/></g></g></g><g fill="#000000" fill-opacity="1"><g transform="translate(129.550457, 53.549366)"><g><path d="M 0.84375 -8.203125 L 4.140625 -8.203125 C 4.921875 -8.203125 5.523438 -7.992188 5.953125 -7.578125 C 6.378906 -7.171875 6.59375 -6.617188 6.59375 -5.921875 C 6.59375 -5.410156 6.460938 -4.96875 6.203125 -4.59375 C 5.953125 -4.226562 5.59375 -3.96875 5.125 -3.8125 L 6.78125 0 L 5.609375 0 L 4.09375 -3.625 L 1.890625 -3.625 L 1.890625 0 L 0.84375 0 Z M 4.09375 -4.578125 C 4.507812 -4.578125 4.84375 -4.695312 5.09375 -4.9375 C 5.351562 -5.1875 5.484375 -5.515625 5.484375 -5.921875 C 5.484375 -6.335938 5.363281 -6.660156 5.125 -6.890625 C 4.882812 -7.128906 4.539062 -7.25 4.09375 -7.25 L 1.890625 -7.25 L 1.890625 -4.578125 Z M 4.09375 -4.578125 "/></g></g></g><g fill="#000000" fill-opacity="1"><g transform="translate(137.803232, 53.549366)"><g/></g></g><g fill="#000000" fill-opacity="1"><g transform="translate(141.702371, 53.549366)"><g><path d="M 0.84375 -8.203125 L 1.890625 -8.203125 L 1.890625 -4.671875 L 5.1875 -4.671875 L 5.1875 -8.203125 L 6.234375 -8.203125 L 6.234375 0 L 5.1875 0 L 5.1875 -3.71875 L 1.890625 -3.71875 L 1.890625 0 L 0.84375 0 Z M 0.84375 -8.203125 "/></g></g></g><g fill="#000000" fill-opacity="1"><g transform="translate(149.955146, 53.549366)"><g><path d="M 0.84375 -8.203125 L 5.890625 -8.203125 L 5.890625 -7.25 L 1.890625 -7.25 L 1.890625 -4.671875 L 5.359375 -4.671875 L 5.359375 -3.71875 L 1.890625 -3.71875 L 1.890625 -0.953125 L 5.96875 -0.953125 L 5.96875 0 L 0.84375 0 Z M 0.84375 -8.203125 "/></g></g></g><g fill="#000000" fill-opacity="1"><g transform="translate(157.669693, 53.549366)"><g><path d="M 2.59375 -8.203125 L 3.9375 -8.203125 L 6.546875 0 L 5.421875 0 L 4.859375 -1.828125 L 1.609375 -1.828125 L 1.046875 0 L -0.015625 0 Z M 4.546875 -2.78125 L 3.4375 -6.4375 C 3.40625 -6.539062 3.367188 -6.695312 3.328125 -6.90625 C 3.285156 -7.125 3.257812 -7.269531 3.25 -7.34375 L 3.203125 -7.34375 C 3.191406 -7.269531 3.164062 -7.125 3.125 -6.90625 C 3.082031 -6.695312 3.046875 -6.539062 3.015625 -6.4375 L 1.890625 -2.78125 Z M 4.546875 -2.78125 "/></g></g></g><g fill="#000000" fill-opacity="1"><g transform="translate(165.384243, 53.549366)"><g><path d="M 0.84375 -8.203125 L 1.890625 -8.203125 L 1.890625 -0.953125 L 5.234375 -0.953125 L 5.234375 0 L 0.84375 0 Z M 0.84375 -8.203125 "/></g></g></g><g fill="#000000" fill-opacity="1"><g transform="translate(172.01039, 53.549366)"><g><path d="M 2.46875 -7.25 L 0.234375 -7.25 L 0.234375 -8.203125 L 5.75 -8.203125 L 5.75 -7.25 L 3.515625 -7.25 L 3.515625 0 L 2.46875 0 Z M 2.46875 -7.25 "/></g></g></g><g fill="#000000" fill-opacity="1"><g transform="translate(179.174761, 53.549366)"><g><path d="M 0.84375 -8.203125 L 1.890625 -8.203125 L 1.890625 -4.671875 L 5.1875 -4.671875 L 5.1875 -8.203125 L 6.234375 -8.203125 L 6.234375 0 L 5.1875 0 L 5.1875 -3.71875 L 1.890625 -3.71875 L 1.890625 0 L 0.84375 0 Z M 0.84375 -8.203125 "/></g></g></g><g fill="#000000" fill-opacity="1"><g transform="translate(187.427536, 53.549366)"><g/></g></g><g fill="#000000" fill-opacity="1"><g transform="translate(191.326675, 53.549366)"><g><path d="M 2.75 -3.390625 L 0.09375 -8.203125 L 1.25 -8.203125 L 3.328125 -4.40625 L 3.375 -4.40625 L 5.421875 -8.203125 L 6.4375 -8.203125 L 3.796875 -3.390625 L 3.796875 0 L 2.75 0 Z M 2.75 -3.390625 "/></g></g></g><g fill="#000000" fill-opacity="1"><g transform="translate(199.041225, 53.549366)"><g><path d="M 3.8125 0.140625 C 2.789062 0.140625 1.992188 -0.21875 1.421875 -0.9375 C 0.859375 -1.65625 0.578125 -2.707031 0.578125 -4.09375 C 0.578125 -5.488281 0.859375 -6.546875 1.421875 -7.265625 C 1.992188 -7.984375 2.789062 -8.34375 3.8125 -8.34375 C 4.832031 -8.34375 5.625 -7.984375 6.1875 -7.265625 C 6.757812 -6.546875 7.046875 -5.488281 7.046875 -4.09375 C 7.046875 -2.707031 6.757812 -1.65625 6.1875 -0.9375 C 5.625 -0.21875 4.832031 0.140625 3.8125 0.140625 Z M 3.8125 -0.828125 C 4.476562 -0.828125 5 -1.078125 5.375 -1.578125 C 5.75 -2.078125 5.9375 -2.816406 5.9375 -3.796875 L 5.9375 -4.40625 C 5.9375 -5.382812 5.75 -6.125 5.375 -6.625 C 5 -7.125 4.476562 -7.375 3.8125 -7.375 C 3.144531 -7.375 2.625 -7.125 2.25 -6.625 C 1.875 -6.125 1.6875 -5.382812 1.6875 -4.40625 L 1.6875 -3.796875 C 1.6875 -2.816406 1.875 -2.078125 2.25 -1.578125 C 2.625 -1.078125 3.144531 -0.828125 3.8125 -0.828125 Z M 3.8125 -0.828125 "/></g></g></g><g fill="#000000" fill-opacity="1"><g transform="translate(207.844184, 53.549366)"><g><path d="M 3.53125 0.140625 C 2.6875 0.140625 2.023438 -0.0976562 1.546875 -0.578125 C 1.078125 -1.054688 0.84375 -1.753906 0.84375 -2.671875 L 0.84375 -8.203125 L 1.890625 -8.203125 L 1.890625 -2.609375 C 1.890625 -2.035156 2.035156 -1.59375 2.328125 -1.28125 C 2.617188 -0.976562 3.019531 -0.828125 3.53125 -0.828125 C 4.050781 -0.828125 4.457031 -0.976562 4.75 -1.28125 C 5.039062 -1.59375 5.1875 -2.035156 5.1875 -2.609375 L 5.1875 -8.203125 L 6.234375 -8.203125 L 6.234375 -2.671875 C 6.234375 -1.753906 5.992188 -1.054688 5.515625 -0.578125 C 5.046875 -0.0976562 4.382812 0.140625 3.53125 0.140625 Z M 3.53125 0.140625 "/></g></g></g><g fill="#000000" fill-opacity="1"><g transform="translate(216.096953, 53.549366)"><g><path d="M 0.84375 -8.203125 L 4.140625 -8.203125 C 4.921875 -8.203125 5.523438 -7.992188 5.953125 -7.578125 C 6.378906 -7.171875 6.59375 -6.617188 6.59375 -5.921875 C 6.59375 -5.410156 6.460938 -4.96875 6.203125 -4.59375 C 5.953125 -4.226562 5.59375 -3.96875 5.125 -3.8125 L 6.78125 0 L 5.609375 0 L 4.09375 -3.625 L 1.890625 -3.625 L 1.890625 0 L 0.84375 0 Z M 4.09375 -4.578125 C 4.507812 -4.578125 4.84375 -4.695312 5.09375 -4.9375 C 5.351562 -5.1875 5.484375 -5.515625 5.484375 -5.921875 C 5.484375 -6.335938 5.363281 -6.660156 5.125 -6.890625 C 4.882812 -7.128906 4.539062 -7.25 4.09375 -7.25 L 1.890625 -7.25 L 1.890625 -4.578125 Z M 4.09375 -4.578125 "/></g></g></g><g fill="#000000" fill-opacity="1"><g transform="translate(224.349722, 53.549366)"><g/></g></g><g fill="#000000" fill-opacity="1"><g transform="translate(228.248856, 53.549366)"><g><path d="M 0.125 -8.203125 L 1.234375 -8.203125 L 2.484375 -2.53125 C 2.535156 -2.332031 2.585938 -2.066406 2.640625 -1.734375 C 2.691406 -1.398438 2.722656 -1.179688 2.734375 -1.078125 L 2.78125 -1.078125 C 2.789062 -1.160156 2.8125 -1.335938 2.84375 -1.609375 C 2.882812 -1.878906 2.929688 -2.1875 2.984375 -2.53125 L 3.9375 -8.203125 L 5.390625 -8.203125 L 6.40625 -2.53125 C 6.457031 -2.28125 6.503906 -2 6.546875 -1.6875 C 6.585938 -1.375 6.613281 -1.171875 6.625 -1.078125 L 6.671875 -1.078125 C 6.679688 -1.179688 6.710938 -1.394531 6.765625 -1.71875 C 6.816406 -2.039062 6.867188 -2.3125 6.921875 -2.53125 L 8.171875 -8.203125 L 9.125 -8.203125 L 7.234375 0 L 5.875 0 L 4.859375 -5.5625 C 4.828125 -5.789062 4.785156 -6.09375 4.734375 -6.46875 C 4.679688 -6.84375 4.648438 -7.085938 4.640625 -7.203125 L 4.59375 -7.203125 C 4.570312 -7.085938 4.535156 -6.84375 4.484375 -6.46875 C 4.441406 -6.09375 4.398438 -5.789062 4.359375 -5.5625 L 3.375 0 L 2.015625 0 Z M 0.125 -8.203125 "/></g></g></g><g fill="#000000" fill-opacity="1"><g transform="translate(238.678442, 53.549366)"><g><path d="M 0.84375 -8.203125 L 5.890625 -8.203125 L 5.890625 -7.25 L 1.890625 -7.25 L 1.890625 -4.671875 L 5.359375 -4.671875 L 5.359375 -3.71875 L 1.890625 -3.71875 L 1.890625 -0.953125 L 5.96875 -0.953125 L 5.96875 0 L 0.84375 0 Z M 0.84375 -8.203125 "/></g></g></g><g fill="#000000" fill-opacity="1"><g transform="translate(246.392986, 53.549366)"><g><path d="M 2.59375 -8.203125 L 3.9375 -8.203125 L 6.546875 0 L 5.421875 0 L 4.859375 -1.828125 L 1.609375 -1.828125 L 1.046875 0 L -0.015625 0 Z M 4.546875 -2.78125 L 3.4375 -6.4375 C 3.40625 -6.539062 3.367188 -6.695312 3.328125 -6.90625 C 3.285156 -7.125 3.257812 -7.269531 3.25 -7.34375 L 3.203125 -7.34375 C 3.191406 -7.269531 3.164062 -7.125 3.125 -6.90625 C 3.082031 -6.695312 3.046875 -6.539062 3.015625 -6.4375 L 1.890625 -2.78125 Z M 4.546875 -2.78125 "/></g></g></g><g fill="#000000" fill-opacity="1"><g transform="translate(254.10753, 53.549366)"><g><path d="M 0.84375 -8.203125 L 1.890625 -8.203125 L 1.890625 -0.953125 L 5.234375 -0.953125 L 5.234375 0 L 0.84375 0 Z M 0.84375 -8.203125 "/></g></g></g><g fill="#000000" fill-opacity="1"><g transform="translate(260.733672, 53.549366)"><g><path d="M 2.46875 -7.25 L 0.234375 -7.25 L 0.234375 -8.203125 L 5.75 -8.203125 L 5.75 -7.25 L 3.515625 -7.25 L 3.515625 0 L 2.46875 0 Z M 2.46875 -7.25 "/></g></g></g><g fill="#000000" fill-opacity="1"><g transform="translate(267.898038, 53.549366)"><g><path d="M 0.84375 -8.203125 L 1.890625 -8.203125 L 1.890625 -4.671875 L 5.1875 -4.671875 L 5.1875 -8.203125 L 6.234375 -8.203125 L 6.234375 0 L 5.1875 0 L 5.1875 -3.71875 L 1.890625 -3.71875 L 1.890625 0 L 0.84375 0 Z M 0.84375 -8.203125 "/></g></g></g></svg>